G04 #@! TF.GenerationSoftware,KiCad,Pcbnew,(5.1.8)-1*
G04 #@! TF.CreationDate,2021-01-03T21:05:32+07:00*
G04 #@! TF.ProjectId,FT600_Adapter,46543630-305f-4416-9461-707465722e6b,rev?*
G04 #@! TF.SameCoordinates,Original*
G04 #@! TF.FileFunction,Copper,L2,Inr*
G04 #@! TF.FilePolarity,Positive*
%FSLAX46Y46*%
G04 Gerber Fmt 4.6, Leading zero omitted, Abs format (unit mm)*
G04 Created by KiCad (PCBNEW (5.1.8)-1) date 2021-01-03 21:05:32*
%MOMM*%
%LPD*%
G01*
G04 APERTURE LIST*
G04 #@! TA.AperFunction,ComponentPad*
%ADD10C,5.000000*%
G04 #@! TD*
G04 #@! TA.AperFunction,ComponentPad*
%ADD11O,1.700000X1.700000*%
G04 #@! TD*
G04 #@! TA.AperFunction,ComponentPad*
%ADD12R,1.700000X1.700000*%
G04 #@! TD*
G04 #@! TA.AperFunction,ViaPad*
%ADD13C,0.450000*%
G04 #@! TD*
G04 #@! TA.AperFunction,ViaPad*
%ADD14C,3.000000*%
G04 #@! TD*
G04 #@! TA.AperFunction,Conductor*
%ADD15C,0.100000*%
G04 #@! TD*
G04 APERTURE END LIST*
D10*
X135000000Y-126000000D03*
X135000000Y-81000000D03*
D11*
X109460000Y-79440000D03*
X112000000Y-79440000D03*
X109460000Y-81980000D03*
X112000000Y-81980000D03*
X109460000Y-84520000D03*
X112000000Y-84520000D03*
X109460000Y-87060000D03*
X112000000Y-87060000D03*
X109460000Y-89600000D03*
X112000000Y-89600000D03*
X109460000Y-92140000D03*
X112000000Y-92140000D03*
X109460000Y-94680000D03*
X112000000Y-94680000D03*
X109460000Y-97220000D03*
X112000000Y-97220000D03*
X109460000Y-99760000D03*
X112000000Y-99760000D03*
X109460000Y-102300000D03*
X112000000Y-102300000D03*
X109460000Y-104840000D03*
X112000000Y-104840000D03*
X109460000Y-107380000D03*
X112000000Y-107380000D03*
X109460000Y-109920000D03*
X112000000Y-109920000D03*
X109460000Y-112460000D03*
X112000000Y-112460000D03*
X109460000Y-115000000D03*
X112000000Y-115000000D03*
X109460000Y-117540000D03*
X112000000Y-117540000D03*
X109460000Y-120080000D03*
X112000000Y-120080000D03*
X109460000Y-122620000D03*
X112000000Y-122620000D03*
X109460000Y-125160000D03*
X112000000Y-125160000D03*
X109460000Y-127700000D03*
D12*
X112000000Y-127700000D03*
D13*
X133880000Y-106300000D03*
X133240000Y-103860000D03*
X128000000Y-105350000D03*
X129300000Y-104775000D03*
X130850000Y-104775000D03*
X132450000Y-104775000D03*
X134000000Y-104775000D03*
X135500000Y-104775000D03*
X128650000Y-102900000D03*
X129900000Y-102900000D03*
X132000000Y-102950000D03*
X133200000Y-102950000D03*
X134400000Y-102950000D03*
X127450000Y-101300000D03*
X128500000Y-100900000D03*
X129750000Y-100900000D03*
X132400000Y-100900000D03*
X128600000Y-98950000D03*
X127450000Y-99650000D03*
X129850000Y-98950000D03*
X132000000Y-98950000D03*
X133250000Y-98950000D03*
X124950000Y-99150000D03*
X133950000Y-100900000D03*
X135900000Y-100900000D03*
X129850000Y-111250000D03*
X131550000Y-110100000D03*
D14*
X123550000Y-103100000D03*
D13*
X125710000Y-96810000D03*
X131400000Y-97000000D03*
X131400000Y-98100000D03*
X131300000Y-111650000D03*
X115000000Y-79000000D03*
X117000000Y-79000000D03*
X119000000Y-79000000D03*
X121000000Y-79000000D03*
X123000000Y-79000000D03*
X125000000Y-79000000D03*
X127000000Y-79000000D03*
X129000000Y-79000000D03*
X131000000Y-79000000D03*
X127000000Y-81000000D03*
X123000000Y-81000000D03*
X131000000Y-81000000D03*
X121000000Y-81000000D03*
X119000000Y-81000000D03*
X125000000Y-81000000D03*
X117000000Y-81000000D03*
X129000000Y-81000000D03*
X129000000Y-83000000D03*
X125000000Y-83000000D03*
X127000000Y-83000000D03*
X131000000Y-83000000D03*
X123000000Y-83000000D03*
X119000000Y-83000000D03*
X121000000Y-83000000D03*
X127000000Y-85000000D03*
X133000000Y-85000000D03*
X123000000Y-85000000D03*
X131000000Y-85000000D03*
X137000000Y-85000000D03*
X121000000Y-85000000D03*
X125000000Y-85000000D03*
X117000000Y-85000000D03*
X129000000Y-85000000D03*
X135000000Y-85000000D03*
X125000000Y-87000000D03*
X131000000Y-87000000D03*
X129000000Y-87000000D03*
X135000000Y-87000000D03*
X119000000Y-87000000D03*
X123000000Y-87000000D03*
X127000000Y-87000000D03*
X133000000Y-87000000D03*
X137000000Y-87000000D03*
X125000000Y-89000000D03*
X131000000Y-89000000D03*
X121000000Y-89000000D03*
X129000000Y-89000000D03*
X135000000Y-89000000D03*
X127000000Y-89000000D03*
X133000000Y-89000000D03*
X137000000Y-89000000D03*
X127000000Y-91000000D03*
X133000000Y-91000000D03*
X131000000Y-91000000D03*
X137000000Y-91000000D03*
X125000000Y-91000000D03*
X129000000Y-91000000D03*
X135000000Y-91000000D03*
X127000000Y-93000000D03*
X133000000Y-93000000D03*
X131000000Y-93000000D03*
X137000000Y-93000000D03*
X125000000Y-93000000D03*
X129000000Y-93000000D03*
X135000000Y-93000000D03*
X135000000Y-95000000D03*
X133000000Y-95000000D03*
X127000000Y-95000000D03*
X137000000Y-95000000D03*
X129000000Y-95000000D03*
X131000000Y-95000000D03*
X127000000Y-128000000D03*
X123000000Y-128000000D03*
X131000000Y-128000000D03*
X121000000Y-128000000D03*
X119000000Y-128000000D03*
X115000000Y-128000000D03*
X125000000Y-128000000D03*
X117000000Y-128000000D03*
X129000000Y-128000000D03*
X125000000Y-126000000D03*
X115000000Y-126000000D03*
X129000000Y-126000000D03*
X123000000Y-126000000D03*
X119000000Y-126000000D03*
X117000000Y-126000000D03*
X121000000Y-126000000D03*
X127000000Y-126000000D03*
X131000000Y-126000000D03*
X129000000Y-124000000D03*
X131000000Y-124000000D03*
X117000000Y-124000000D03*
X125000000Y-124000000D03*
X119000000Y-124000000D03*
X127000000Y-124000000D03*
X123000000Y-124000000D03*
X121000000Y-124000000D03*
X127000000Y-122000000D03*
X125000000Y-122000000D03*
X129000000Y-122000000D03*
X131000000Y-122000000D03*
X123000000Y-122000000D03*
X121000000Y-122000000D03*
X137000000Y-122000000D03*
X135000000Y-122000000D03*
X119000000Y-122000000D03*
X133000000Y-122000000D03*
X125000000Y-120000000D03*
X137000000Y-120000000D03*
X133000000Y-120000000D03*
X127000000Y-120000000D03*
X135000000Y-120000000D03*
X131000000Y-120000000D03*
X123000000Y-120000000D03*
X129000000Y-120000000D03*
X121000000Y-120000000D03*
X129000000Y-118000000D03*
X135000000Y-118000000D03*
X123000000Y-118000000D03*
X137000000Y-118000000D03*
X131000000Y-118000000D03*
X125000000Y-118000000D03*
X127000000Y-118000000D03*
X133000000Y-118000000D03*
X131000000Y-116000000D03*
X133000000Y-116000000D03*
X125000000Y-116000000D03*
X127000000Y-116000000D03*
X129000000Y-116000000D03*
X135000000Y-116000000D03*
X137000000Y-116000000D03*
X115000000Y-83000000D03*
X115000000Y-122000000D03*
X115000000Y-120000000D03*
X115000000Y-118000000D03*
X117000000Y-118000000D03*
X119000000Y-118000000D03*
X117000000Y-120000000D03*
X127000000Y-97000000D03*
X129000000Y-97000000D03*
X133200000Y-107900000D03*
X132600000Y-107900000D03*
X126450000Y-99050000D03*
X126750000Y-106180000D03*
X125700000Y-99010000D03*
X127450000Y-102900000D03*
X122650000Y-99150000D03*
X119500000Y-103800000D03*
X120950000Y-100700000D03*
X122900000Y-105600000D03*
X124900000Y-105600000D03*
X124150000Y-105600000D03*
X125750000Y-114250000D03*
X124150000Y-100600000D03*
X126000000Y-100600000D03*
X121000000Y-105650000D03*
X119550000Y-103100000D03*
X134000000Y-98000000D03*
X136000000Y-98000000D03*
X135000000Y-98000000D03*
X134000000Y-97000000D03*
X135000000Y-97000000D03*
X136000000Y-97000000D03*
X136000000Y-113000000D03*
X135000000Y-113000000D03*
X134000000Y-113000000D03*
X134000000Y-114000000D03*
X135000000Y-114000000D03*
X136000000Y-114000000D03*
D15*
X138450000Y-129450000D02*
X107550000Y-129450000D01*
X107550000Y-127596584D01*
X108410000Y-127596584D01*
X108410000Y-127803416D01*
X108450350Y-128006274D01*
X108529502Y-128197362D01*
X108644411Y-128369336D01*
X108790664Y-128515589D01*
X108962638Y-128630498D01*
X109153726Y-128709650D01*
X109356584Y-128750000D01*
X109563416Y-128750000D01*
X109766274Y-128709650D01*
X109957362Y-128630498D01*
X110129336Y-128515589D01*
X110275589Y-128369336D01*
X110390498Y-128197362D01*
X110469650Y-128006274D01*
X110510000Y-127803416D01*
X110510000Y-127596584D01*
X110469650Y-127393726D01*
X110390498Y-127202638D01*
X110275589Y-127030664D01*
X110129336Y-126884411D01*
X109957362Y-126769502D01*
X109766274Y-126690350D01*
X109563416Y-126650000D01*
X109356584Y-126650000D01*
X109153726Y-126690350D01*
X108962638Y-126769502D01*
X108790664Y-126884411D01*
X108644411Y-127030664D01*
X108529502Y-127202638D01*
X108450350Y-127393726D01*
X108410000Y-127596584D01*
X107550000Y-127596584D01*
X107550000Y-125056584D01*
X108410000Y-125056584D01*
X108410000Y-125263416D01*
X108450350Y-125466274D01*
X108529502Y-125657362D01*
X108644411Y-125829336D01*
X108790664Y-125975589D01*
X108962638Y-126090498D01*
X109153726Y-126169650D01*
X109356584Y-126210000D01*
X109563416Y-126210000D01*
X109766274Y-126169650D01*
X109957362Y-126090498D01*
X110129336Y-125975589D01*
X110275589Y-125829336D01*
X110390498Y-125657362D01*
X110469650Y-125466274D01*
X110510000Y-125263416D01*
X110510000Y-125056584D01*
X110950000Y-125056584D01*
X110950000Y-125263416D01*
X110990350Y-125466274D01*
X111069502Y-125657362D01*
X111184411Y-125829336D01*
X111330664Y-125975589D01*
X111502638Y-126090498D01*
X111693726Y-126169650D01*
X111896584Y-126210000D01*
X112103416Y-126210000D01*
X112306274Y-126169650D01*
X112497362Y-126090498D01*
X112669336Y-125975589D01*
X112815589Y-125829336D01*
X112879241Y-125734073D01*
X132300000Y-125734073D01*
X132300000Y-126265927D01*
X132403760Y-126787561D01*
X132607291Y-127278930D01*
X132902773Y-127721150D01*
X133278850Y-128097227D01*
X133721070Y-128392709D01*
X134212439Y-128596240D01*
X134734073Y-128700000D01*
X135265927Y-128700000D01*
X135787561Y-128596240D01*
X136278930Y-128392709D01*
X136721150Y-128097227D01*
X137097227Y-127721150D01*
X137392709Y-127278930D01*
X137596240Y-126787561D01*
X137700000Y-126265927D01*
X137700000Y-125734073D01*
X137596240Y-125212439D01*
X137392709Y-124721070D01*
X137097227Y-124278850D01*
X136721150Y-123902773D01*
X136278930Y-123607291D01*
X135787561Y-123403760D01*
X135265927Y-123300000D01*
X134734073Y-123300000D01*
X134212439Y-123403760D01*
X133721070Y-123607291D01*
X133278850Y-123902773D01*
X132902773Y-124278850D01*
X132607291Y-124721070D01*
X132403760Y-125212439D01*
X132300000Y-125734073D01*
X112879241Y-125734073D01*
X112930498Y-125657362D01*
X113009650Y-125466274D01*
X113050000Y-125263416D01*
X113050000Y-125056584D01*
X113009650Y-124853726D01*
X112930498Y-124662638D01*
X112815589Y-124490664D01*
X112669336Y-124344411D01*
X112497362Y-124229502D01*
X112306274Y-124150350D01*
X112103416Y-124110000D01*
X111896584Y-124110000D01*
X111693726Y-124150350D01*
X111502638Y-124229502D01*
X111330664Y-124344411D01*
X111184411Y-124490664D01*
X111069502Y-124662638D01*
X110990350Y-124853726D01*
X110950000Y-125056584D01*
X110510000Y-125056584D01*
X110469650Y-124853726D01*
X110390498Y-124662638D01*
X110275589Y-124490664D01*
X110129336Y-124344411D01*
X109957362Y-124229502D01*
X109766274Y-124150350D01*
X109563416Y-124110000D01*
X109356584Y-124110000D01*
X109153726Y-124150350D01*
X108962638Y-124229502D01*
X108790664Y-124344411D01*
X108644411Y-124490664D01*
X108529502Y-124662638D01*
X108450350Y-124853726D01*
X108410000Y-125056584D01*
X107550000Y-125056584D01*
X107550000Y-122516584D01*
X108410000Y-122516584D01*
X108410000Y-122723416D01*
X108450350Y-122926274D01*
X108529502Y-123117362D01*
X108644411Y-123289336D01*
X108790664Y-123435589D01*
X108962638Y-123550498D01*
X109153726Y-123629650D01*
X109356584Y-123670000D01*
X109563416Y-123670000D01*
X109766274Y-123629650D01*
X109957362Y-123550498D01*
X110129336Y-123435589D01*
X110275589Y-123289336D01*
X110390498Y-123117362D01*
X110469650Y-122926274D01*
X110510000Y-122723416D01*
X110510000Y-122516584D01*
X110950000Y-122516584D01*
X110950000Y-122723416D01*
X110990350Y-122926274D01*
X111069502Y-123117362D01*
X111184411Y-123289336D01*
X111330664Y-123435589D01*
X111502638Y-123550498D01*
X111693726Y-123629650D01*
X111896584Y-123670000D01*
X112103416Y-123670000D01*
X112306274Y-123629650D01*
X112497362Y-123550498D01*
X112669336Y-123435589D01*
X112815589Y-123289336D01*
X112930498Y-123117362D01*
X113009650Y-122926274D01*
X113050000Y-122723416D01*
X113050000Y-122516584D01*
X113009650Y-122313726D01*
X112930498Y-122122638D01*
X112815589Y-121950664D01*
X112669336Y-121804411D01*
X112497362Y-121689502D01*
X112306274Y-121610350D01*
X112103416Y-121570000D01*
X111896584Y-121570000D01*
X111693726Y-121610350D01*
X111502638Y-121689502D01*
X111330664Y-121804411D01*
X111184411Y-121950664D01*
X111069502Y-122122638D01*
X110990350Y-122313726D01*
X110950000Y-122516584D01*
X110510000Y-122516584D01*
X110469650Y-122313726D01*
X110390498Y-122122638D01*
X110275589Y-121950664D01*
X110129336Y-121804411D01*
X109957362Y-121689502D01*
X109766274Y-121610350D01*
X109563416Y-121570000D01*
X109356584Y-121570000D01*
X109153726Y-121610350D01*
X108962638Y-121689502D01*
X108790664Y-121804411D01*
X108644411Y-121950664D01*
X108529502Y-122122638D01*
X108450350Y-122313726D01*
X108410000Y-122516584D01*
X107550000Y-122516584D01*
X107550000Y-119976584D01*
X108410000Y-119976584D01*
X108410000Y-120183416D01*
X108450350Y-120386274D01*
X108529502Y-120577362D01*
X108644411Y-120749336D01*
X108790664Y-120895589D01*
X108962638Y-121010498D01*
X109153726Y-121089650D01*
X109356584Y-121130000D01*
X109563416Y-121130000D01*
X109766274Y-121089650D01*
X109957362Y-121010498D01*
X110129336Y-120895589D01*
X110275589Y-120749336D01*
X110390498Y-120577362D01*
X110469650Y-120386274D01*
X110510000Y-120183416D01*
X110510000Y-119976584D01*
X110950000Y-119976584D01*
X110950000Y-120183416D01*
X110990350Y-120386274D01*
X111069502Y-120577362D01*
X111184411Y-120749336D01*
X111330664Y-120895589D01*
X111502638Y-121010498D01*
X111693726Y-121089650D01*
X111896584Y-121130000D01*
X112103416Y-121130000D01*
X112306274Y-121089650D01*
X112497362Y-121010498D01*
X112669336Y-120895589D01*
X112815589Y-120749336D01*
X112930498Y-120577362D01*
X113009650Y-120386274D01*
X113050000Y-120183416D01*
X113050000Y-119976584D01*
X113009650Y-119773726D01*
X112930498Y-119582638D01*
X112815589Y-119410664D01*
X112669336Y-119264411D01*
X112497362Y-119149502D01*
X112306274Y-119070350D01*
X112103416Y-119030000D01*
X111896584Y-119030000D01*
X111693726Y-119070350D01*
X111502638Y-119149502D01*
X111330664Y-119264411D01*
X111184411Y-119410664D01*
X111069502Y-119582638D01*
X110990350Y-119773726D01*
X110950000Y-119976584D01*
X110510000Y-119976584D01*
X110469650Y-119773726D01*
X110390498Y-119582638D01*
X110275589Y-119410664D01*
X110129336Y-119264411D01*
X109957362Y-119149502D01*
X109766274Y-119070350D01*
X109563416Y-119030000D01*
X109356584Y-119030000D01*
X109153726Y-119070350D01*
X108962638Y-119149502D01*
X108790664Y-119264411D01*
X108644411Y-119410664D01*
X108529502Y-119582638D01*
X108450350Y-119773726D01*
X108410000Y-119976584D01*
X107550000Y-119976584D01*
X107550000Y-117436584D01*
X108410000Y-117436584D01*
X108410000Y-117643416D01*
X108450350Y-117846274D01*
X108529502Y-118037362D01*
X108644411Y-118209336D01*
X108790664Y-118355589D01*
X108962638Y-118470498D01*
X109153726Y-118549650D01*
X109356584Y-118590000D01*
X109563416Y-118590000D01*
X109766274Y-118549650D01*
X109957362Y-118470498D01*
X110129336Y-118355589D01*
X110275589Y-118209336D01*
X110390498Y-118037362D01*
X110469650Y-117846274D01*
X110510000Y-117643416D01*
X110510000Y-117436584D01*
X110950000Y-117436584D01*
X110950000Y-117643416D01*
X110990350Y-117846274D01*
X111069502Y-118037362D01*
X111184411Y-118209336D01*
X111330664Y-118355589D01*
X111502638Y-118470498D01*
X111693726Y-118549650D01*
X111896584Y-118590000D01*
X112103416Y-118590000D01*
X112306274Y-118549650D01*
X112497362Y-118470498D01*
X112669336Y-118355589D01*
X112815589Y-118209336D01*
X112930498Y-118037362D01*
X113009650Y-117846274D01*
X113050000Y-117643416D01*
X113050000Y-117436584D01*
X113009650Y-117233726D01*
X112930498Y-117042638D01*
X112815589Y-116870664D01*
X112669336Y-116724411D01*
X112497362Y-116609502D01*
X112306274Y-116530350D01*
X112103416Y-116490000D01*
X111896584Y-116490000D01*
X111693726Y-116530350D01*
X111502638Y-116609502D01*
X111330664Y-116724411D01*
X111184411Y-116870664D01*
X111069502Y-117042638D01*
X110990350Y-117233726D01*
X110950000Y-117436584D01*
X110510000Y-117436584D01*
X110469650Y-117233726D01*
X110390498Y-117042638D01*
X110275589Y-116870664D01*
X110129336Y-116724411D01*
X109957362Y-116609502D01*
X109766274Y-116530350D01*
X109563416Y-116490000D01*
X109356584Y-116490000D01*
X109153726Y-116530350D01*
X108962638Y-116609502D01*
X108790664Y-116724411D01*
X108644411Y-116870664D01*
X108529502Y-117042638D01*
X108450350Y-117233726D01*
X108410000Y-117436584D01*
X107550000Y-117436584D01*
X107550000Y-114896584D01*
X108410000Y-114896584D01*
X108410000Y-115103416D01*
X108450350Y-115306274D01*
X108529502Y-115497362D01*
X108644411Y-115669336D01*
X108790664Y-115815589D01*
X108962638Y-115930498D01*
X109153726Y-116009650D01*
X109356584Y-116050000D01*
X109563416Y-116050000D01*
X109766274Y-116009650D01*
X109957362Y-115930498D01*
X110129336Y-115815589D01*
X110275589Y-115669336D01*
X110390498Y-115497362D01*
X110469650Y-115306274D01*
X110510000Y-115103416D01*
X110510000Y-114896584D01*
X110950000Y-114896584D01*
X110950000Y-115103416D01*
X110990350Y-115306274D01*
X111069502Y-115497362D01*
X111184411Y-115669336D01*
X111330664Y-115815589D01*
X111502638Y-115930498D01*
X111693726Y-116009650D01*
X111896584Y-116050000D01*
X112103416Y-116050000D01*
X112306274Y-116009650D01*
X112497362Y-115930498D01*
X112669336Y-115815589D01*
X112815589Y-115669336D01*
X112930498Y-115497362D01*
X113009650Y-115306274D01*
X113050000Y-115103416D01*
X113050000Y-114896584D01*
X113009650Y-114693726D01*
X112930498Y-114502638D01*
X112815589Y-114330664D01*
X112693066Y-114208141D01*
X125325000Y-114208141D01*
X125325000Y-114291859D01*
X125341333Y-114373968D01*
X125373370Y-114451313D01*
X125419881Y-114520921D01*
X125479079Y-114580119D01*
X125548687Y-114626630D01*
X125626032Y-114658667D01*
X125708141Y-114675000D01*
X125791859Y-114675000D01*
X125873968Y-114658667D01*
X125951313Y-114626630D01*
X126020921Y-114580119D01*
X126080119Y-114520921D01*
X126126630Y-114451313D01*
X126158667Y-114373968D01*
X126175000Y-114291859D01*
X126175000Y-114208141D01*
X126158667Y-114126032D01*
X126126630Y-114048687D01*
X126080119Y-113979079D01*
X126059181Y-113958141D01*
X133575000Y-113958141D01*
X133575000Y-114041859D01*
X133591333Y-114123968D01*
X133623370Y-114201313D01*
X133669881Y-114270921D01*
X133729079Y-114330119D01*
X133798687Y-114376630D01*
X133876032Y-114408667D01*
X133958141Y-114425000D01*
X134041859Y-114425000D01*
X134123968Y-114408667D01*
X134201313Y-114376630D01*
X134270921Y-114330119D01*
X134330119Y-114270921D01*
X134376630Y-114201313D01*
X134408667Y-114123968D01*
X134425000Y-114041859D01*
X134425000Y-113958141D01*
X134575000Y-113958141D01*
X134575000Y-114041859D01*
X134591333Y-114123968D01*
X134623370Y-114201313D01*
X134669881Y-114270921D01*
X134729079Y-114330119D01*
X134798687Y-114376630D01*
X134876032Y-114408667D01*
X134958141Y-114425000D01*
X135041859Y-114425000D01*
X135123968Y-114408667D01*
X135201313Y-114376630D01*
X135270921Y-114330119D01*
X135330119Y-114270921D01*
X135376630Y-114201313D01*
X135408667Y-114123968D01*
X135425000Y-114041859D01*
X135425000Y-113958141D01*
X135575000Y-113958141D01*
X135575000Y-114041859D01*
X135591333Y-114123968D01*
X135623370Y-114201313D01*
X135669881Y-114270921D01*
X135729079Y-114330119D01*
X135798687Y-114376630D01*
X135876032Y-114408667D01*
X135958141Y-114425000D01*
X136041859Y-114425000D01*
X136123968Y-114408667D01*
X136201313Y-114376630D01*
X136270921Y-114330119D01*
X136330119Y-114270921D01*
X136376630Y-114201313D01*
X136408667Y-114123968D01*
X136425000Y-114041859D01*
X136425000Y-113958141D01*
X136408667Y-113876032D01*
X136376630Y-113798687D01*
X136330119Y-113729079D01*
X136270921Y-113669881D01*
X136201313Y-113623370D01*
X136123968Y-113591333D01*
X136041859Y-113575000D01*
X135958141Y-113575000D01*
X135876032Y-113591333D01*
X135798687Y-113623370D01*
X135729079Y-113669881D01*
X135669881Y-113729079D01*
X135623370Y-113798687D01*
X135591333Y-113876032D01*
X135575000Y-113958141D01*
X135425000Y-113958141D01*
X135408667Y-113876032D01*
X135376630Y-113798687D01*
X135330119Y-113729079D01*
X135270921Y-113669881D01*
X135201313Y-113623370D01*
X135123968Y-113591333D01*
X135041859Y-113575000D01*
X134958141Y-113575000D01*
X134876032Y-113591333D01*
X134798687Y-113623370D01*
X134729079Y-113669881D01*
X134669881Y-113729079D01*
X134623370Y-113798687D01*
X134591333Y-113876032D01*
X134575000Y-113958141D01*
X134425000Y-113958141D01*
X134408667Y-113876032D01*
X134376630Y-113798687D01*
X134330119Y-113729079D01*
X134270921Y-113669881D01*
X134201313Y-113623370D01*
X134123968Y-113591333D01*
X134041859Y-113575000D01*
X133958141Y-113575000D01*
X133876032Y-113591333D01*
X133798687Y-113623370D01*
X133729079Y-113669881D01*
X133669881Y-113729079D01*
X133623370Y-113798687D01*
X133591333Y-113876032D01*
X133575000Y-113958141D01*
X126059181Y-113958141D01*
X126020921Y-113919881D01*
X125951313Y-113873370D01*
X125873968Y-113841333D01*
X125791859Y-113825000D01*
X125708141Y-113825000D01*
X125626032Y-113841333D01*
X125548687Y-113873370D01*
X125479079Y-113919881D01*
X125419881Y-113979079D01*
X125373370Y-114048687D01*
X125341333Y-114126032D01*
X125325000Y-114208141D01*
X112693066Y-114208141D01*
X112669336Y-114184411D01*
X112497362Y-114069502D01*
X112306274Y-113990350D01*
X112103416Y-113950000D01*
X111896584Y-113950000D01*
X111693726Y-113990350D01*
X111502638Y-114069502D01*
X111330664Y-114184411D01*
X111184411Y-114330664D01*
X111069502Y-114502638D01*
X110990350Y-114693726D01*
X110950000Y-114896584D01*
X110510000Y-114896584D01*
X110469650Y-114693726D01*
X110390498Y-114502638D01*
X110275589Y-114330664D01*
X110129336Y-114184411D01*
X109957362Y-114069502D01*
X109766274Y-113990350D01*
X109563416Y-113950000D01*
X109356584Y-113950000D01*
X109153726Y-113990350D01*
X108962638Y-114069502D01*
X108790664Y-114184411D01*
X108644411Y-114330664D01*
X108529502Y-114502638D01*
X108450350Y-114693726D01*
X108410000Y-114896584D01*
X107550000Y-114896584D01*
X107550000Y-112356584D01*
X108410000Y-112356584D01*
X108410000Y-112563416D01*
X108450350Y-112766274D01*
X108529502Y-112957362D01*
X108644411Y-113129336D01*
X108790664Y-113275589D01*
X108962638Y-113390498D01*
X109153726Y-113469650D01*
X109356584Y-113510000D01*
X109563416Y-113510000D01*
X109766274Y-113469650D01*
X109957362Y-113390498D01*
X110129336Y-113275589D01*
X110275589Y-113129336D01*
X110390498Y-112957362D01*
X110469650Y-112766274D01*
X110510000Y-112563416D01*
X110510000Y-112356584D01*
X110950000Y-112356584D01*
X110950000Y-112563416D01*
X110990350Y-112766274D01*
X111069502Y-112957362D01*
X111184411Y-113129336D01*
X111330664Y-113275589D01*
X111502638Y-113390498D01*
X111693726Y-113469650D01*
X111896584Y-113510000D01*
X112103416Y-113510000D01*
X112306274Y-113469650D01*
X112497362Y-113390498D01*
X112669336Y-113275589D01*
X112815589Y-113129336D01*
X112929977Y-112958141D01*
X133575000Y-112958141D01*
X133575000Y-113041859D01*
X133591333Y-113123968D01*
X133623370Y-113201313D01*
X133669881Y-113270921D01*
X133729079Y-113330119D01*
X133798687Y-113376630D01*
X133876032Y-113408667D01*
X133958141Y-113425000D01*
X134041859Y-113425000D01*
X134123968Y-113408667D01*
X134201313Y-113376630D01*
X134270921Y-113330119D01*
X134330119Y-113270921D01*
X134376630Y-113201313D01*
X134408667Y-113123968D01*
X134425000Y-113041859D01*
X134425000Y-112958141D01*
X134575000Y-112958141D01*
X134575000Y-113041859D01*
X134591333Y-113123968D01*
X134623370Y-113201313D01*
X134669881Y-113270921D01*
X134729079Y-113330119D01*
X134798687Y-113376630D01*
X134876032Y-113408667D01*
X134958141Y-113425000D01*
X135041859Y-113425000D01*
X135123968Y-113408667D01*
X135201313Y-113376630D01*
X135270921Y-113330119D01*
X135330119Y-113270921D01*
X135376630Y-113201313D01*
X135408667Y-113123968D01*
X135425000Y-113041859D01*
X135425000Y-112958141D01*
X135575000Y-112958141D01*
X135575000Y-113041859D01*
X135591333Y-113123968D01*
X135623370Y-113201313D01*
X135669881Y-113270921D01*
X135729079Y-113330119D01*
X135798687Y-113376630D01*
X135876032Y-113408667D01*
X135958141Y-113425000D01*
X136041859Y-113425000D01*
X136123968Y-113408667D01*
X136201313Y-113376630D01*
X136270921Y-113330119D01*
X136330119Y-113270921D01*
X136376630Y-113201313D01*
X136408667Y-113123968D01*
X136425000Y-113041859D01*
X136425000Y-112958141D01*
X136408667Y-112876032D01*
X136376630Y-112798687D01*
X136330119Y-112729079D01*
X136270921Y-112669881D01*
X136201313Y-112623370D01*
X136123968Y-112591333D01*
X136041859Y-112575000D01*
X135958141Y-112575000D01*
X135876032Y-112591333D01*
X135798687Y-112623370D01*
X135729079Y-112669881D01*
X135669881Y-112729079D01*
X135623370Y-112798687D01*
X135591333Y-112876032D01*
X135575000Y-112958141D01*
X135425000Y-112958141D01*
X135408667Y-112876032D01*
X135376630Y-112798687D01*
X135330119Y-112729079D01*
X135270921Y-112669881D01*
X135201313Y-112623370D01*
X135123968Y-112591333D01*
X135041859Y-112575000D01*
X134958141Y-112575000D01*
X134876032Y-112591333D01*
X134798687Y-112623370D01*
X134729079Y-112669881D01*
X134669881Y-112729079D01*
X134623370Y-112798687D01*
X134591333Y-112876032D01*
X134575000Y-112958141D01*
X134425000Y-112958141D01*
X134408667Y-112876032D01*
X134376630Y-112798687D01*
X134330119Y-112729079D01*
X134270921Y-112669881D01*
X134201313Y-112623370D01*
X134123968Y-112591333D01*
X134041859Y-112575000D01*
X133958141Y-112575000D01*
X133876032Y-112591333D01*
X133798687Y-112623370D01*
X133729079Y-112669881D01*
X133669881Y-112729079D01*
X133623370Y-112798687D01*
X133591333Y-112876032D01*
X133575000Y-112958141D01*
X112929977Y-112958141D01*
X112930498Y-112957362D01*
X113009650Y-112766274D01*
X113050000Y-112563416D01*
X113050000Y-112356584D01*
X113009650Y-112153726D01*
X112930498Y-111962638D01*
X112815589Y-111790664D01*
X112669336Y-111644411D01*
X112497362Y-111529502D01*
X112306274Y-111450350D01*
X112103416Y-111410000D01*
X111896584Y-111410000D01*
X111693726Y-111450350D01*
X111502638Y-111529502D01*
X111330664Y-111644411D01*
X111184411Y-111790664D01*
X111069502Y-111962638D01*
X110990350Y-112153726D01*
X110950000Y-112356584D01*
X110510000Y-112356584D01*
X110469650Y-112153726D01*
X110390498Y-111962638D01*
X110275589Y-111790664D01*
X110129336Y-111644411D01*
X109957362Y-111529502D01*
X109766274Y-111450350D01*
X109563416Y-111410000D01*
X109356584Y-111410000D01*
X109153726Y-111450350D01*
X108962638Y-111529502D01*
X108790664Y-111644411D01*
X108644411Y-111790664D01*
X108529502Y-111962638D01*
X108450350Y-112153726D01*
X108410000Y-112356584D01*
X107550000Y-112356584D01*
X107550000Y-109816584D01*
X108410000Y-109816584D01*
X108410000Y-110023416D01*
X108450350Y-110226274D01*
X108529502Y-110417362D01*
X108644411Y-110589336D01*
X108790664Y-110735589D01*
X108962638Y-110850498D01*
X109153726Y-110929650D01*
X109356584Y-110970000D01*
X109563416Y-110970000D01*
X109766274Y-110929650D01*
X109957362Y-110850498D01*
X110129336Y-110735589D01*
X110275589Y-110589336D01*
X110390498Y-110417362D01*
X110469650Y-110226274D01*
X110510000Y-110023416D01*
X110510000Y-109816584D01*
X110950000Y-109816584D01*
X110950000Y-110023416D01*
X110990350Y-110226274D01*
X111069502Y-110417362D01*
X111184411Y-110589336D01*
X111330664Y-110735589D01*
X111502638Y-110850498D01*
X111693726Y-110929650D01*
X111896584Y-110970000D01*
X112103416Y-110970000D01*
X112306274Y-110929650D01*
X112497362Y-110850498D01*
X112669336Y-110735589D01*
X112815589Y-110589336D01*
X112930498Y-110417362D01*
X113009650Y-110226274D01*
X113050000Y-110023416D01*
X113050000Y-109816584D01*
X113009650Y-109613726D01*
X112930498Y-109422638D01*
X112815589Y-109250664D01*
X112669336Y-109104411D01*
X112497362Y-108989502D01*
X112306274Y-108910350D01*
X112103416Y-108870000D01*
X111896584Y-108870000D01*
X111693726Y-108910350D01*
X111502638Y-108989502D01*
X111330664Y-109104411D01*
X111184411Y-109250664D01*
X111069502Y-109422638D01*
X110990350Y-109613726D01*
X110950000Y-109816584D01*
X110510000Y-109816584D01*
X110469650Y-109613726D01*
X110390498Y-109422638D01*
X110275589Y-109250664D01*
X110129336Y-109104411D01*
X109957362Y-108989502D01*
X109766274Y-108910350D01*
X109563416Y-108870000D01*
X109356584Y-108870000D01*
X109153726Y-108910350D01*
X108962638Y-108989502D01*
X108790664Y-109104411D01*
X108644411Y-109250664D01*
X108529502Y-109422638D01*
X108450350Y-109613726D01*
X108410000Y-109816584D01*
X107550000Y-109816584D01*
X107550000Y-107276584D01*
X108410000Y-107276584D01*
X108410000Y-107483416D01*
X108450350Y-107686274D01*
X108529502Y-107877362D01*
X108644411Y-108049336D01*
X108790664Y-108195589D01*
X108962638Y-108310498D01*
X109153726Y-108389650D01*
X109356584Y-108430000D01*
X109563416Y-108430000D01*
X109766274Y-108389650D01*
X109957362Y-108310498D01*
X110129336Y-108195589D01*
X110275589Y-108049336D01*
X110390498Y-107877362D01*
X110469650Y-107686274D01*
X110510000Y-107483416D01*
X110510000Y-107276584D01*
X110950000Y-107276584D01*
X110950000Y-107483416D01*
X110990350Y-107686274D01*
X111069502Y-107877362D01*
X111184411Y-108049336D01*
X111330664Y-108195589D01*
X111502638Y-108310498D01*
X111693726Y-108389650D01*
X111896584Y-108430000D01*
X112103416Y-108430000D01*
X112306274Y-108389650D01*
X112497362Y-108310498D01*
X112669336Y-108195589D01*
X112815589Y-108049336D01*
X112930498Y-107877362D01*
X112938459Y-107858141D01*
X132175000Y-107858141D01*
X132175000Y-107941859D01*
X132191333Y-108023968D01*
X132223370Y-108101313D01*
X132269881Y-108170921D01*
X132329079Y-108230119D01*
X132398687Y-108276630D01*
X132476032Y-108308667D01*
X132558141Y-108325000D01*
X132641859Y-108325000D01*
X132723968Y-108308667D01*
X132801313Y-108276630D01*
X132870921Y-108230119D01*
X132900000Y-108201040D01*
X132929079Y-108230119D01*
X132998687Y-108276630D01*
X133076032Y-108308667D01*
X133158141Y-108325000D01*
X133241859Y-108325000D01*
X133323968Y-108308667D01*
X133401313Y-108276630D01*
X133470921Y-108230119D01*
X133530119Y-108170921D01*
X133576630Y-108101313D01*
X133608667Y-108023968D01*
X133625000Y-107941859D01*
X133625000Y-107858141D01*
X133608667Y-107776032D01*
X133576630Y-107698687D01*
X133530119Y-107629079D01*
X133470921Y-107569881D01*
X133401313Y-107523370D01*
X133323968Y-107491333D01*
X133241859Y-107475000D01*
X133158141Y-107475000D01*
X133076032Y-107491333D01*
X132998687Y-107523370D01*
X132929079Y-107569881D01*
X132900000Y-107598960D01*
X132870921Y-107569881D01*
X132801313Y-107523370D01*
X132723968Y-107491333D01*
X132641859Y-107475000D01*
X132558141Y-107475000D01*
X132476032Y-107491333D01*
X132398687Y-107523370D01*
X132329079Y-107569881D01*
X132269881Y-107629079D01*
X132223370Y-107698687D01*
X132191333Y-107776032D01*
X132175000Y-107858141D01*
X112938459Y-107858141D01*
X113009650Y-107686274D01*
X113050000Y-107483416D01*
X113050000Y-107276584D01*
X113009650Y-107073726D01*
X112930498Y-106882638D01*
X112815589Y-106710664D01*
X112669336Y-106564411D01*
X112497362Y-106449502D01*
X112306274Y-106370350D01*
X112103416Y-106330000D01*
X111896584Y-106330000D01*
X111693726Y-106370350D01*
X111502638Y-106449502D01*
X111330664Y-106564411D01*
X111184411Y-106710664D01*
X111069502Y-106882638D01*
X110990350Y-107073726D01*
X110950000Y-107276584D01*
X110510000Y-107276584D01*
X110469650Y-107073726D01*
X110390498Y-106882638D01*
X110275589Y-106710664D01*
X110129336Y-106564411D01*
X109957362Y-106449502D01*
X109766274Y-106370350D01*
X109563416Y-106330000D01*
X109356584Y-106330000D01*
X109153726Y-106370350D01*
X108962638Y-106449502D01*
X108790664Y-106564411D01*
X108644411Y-106710664D01*
X108529502Y-106882638D01*
X108450350Y-107073726D01*
X108410000Y-107276584D01*
X107550000Y-107276584D01*
X107550000Y-106138141D01*
X126325000Y-106138141D01*
X126325000Y-106221859D01*
X126341333Y-106303968D01*
X126373370Y-106381313D01*
X126419881Y-106450921D01*
X126479079Y-106510119D01*
X126548687Y-106556630D01*
X126626032Y-106588667D01*
X126708141Y-106605000D01*
X126791859Y-106605000D01*
X126873968Y-106588667D01*
X126951313Y-106556630D01*
X127020921Y-106510119D01*
X127080119Y-106450921D01*
X127126630Y-106381313D01*
X127158667Y-106303968D01*
X127175000Y-106221859D01*
X127175000Y-106138141D01*
X127158667Y-106056032D01*
X127126630Y-105978687D01*
X127080119Y-105909079D01*
X127020921Y-105849881D01*
X126951313Y-105803370D01*
X126873968Y-105771333D01*
X126791859Y-105755000D01*
X126708141Y-105755000D01*
X126626032Y-105771333D01*
X126548687Y-105803370D01*
X126479079Y-105849881D01*
X126419881Y-105909079D01*
X126373370Y-105978687D01*
X126341333Y-106056032D01*
X126325000Y-106138141D01*
X107550000Y-106138141D01*
X107550000Y-104736584D01*
X108410000Y-104736584D01*
X108410000Y-104943416D01*
X108450350Y-105146274D01*
X108529502Y-105337362D01*
X108644411Y-105509336D01*
X108790664Y-105655589D01*
X108962638Y-105770498D01*
X109153726Y-105849650D01*
X109356584Y-105890000D01*
X109563416Y-105890000D01*
X109766274Y-105849650D01*
X109957362Y-105770498D01*
X110129336Y-105655589D01*
X110275589Y-105509336D01*
X110390498Y-105337362D01*
X110469650Y-105146274D01*
X110510000Y-104943416D01*
X110510000Y-104736584D01*
X110950000Y-104736584D01*
X110950000Y-104943416D01*
X110990350Y-105146274D01*
X111069502Y-105337362D01*
X111184411Y-105509336D01*
X111330664Y-105655589D01*
X111502638Y-105770498D01*
X111693726Y-105849650D01*
X111896584Y-105890000D01*
X112103416Y-105890000D01*
X112306274Y-105849650D01*
X112497362Y-105770498D01*
X112669336Y-105655589D01*
X112716784Y-105608141D01*
X120575000Y-105608141D01*
X120575000Y-105691859D01*
X120591333Y-105773968D01*
X120623370Y-105851313D01*
X120669881Y-105920921D01*
X120729079Y-105980119D01*
X120798687Y-106026630D01*
X120876032Y-106058667D01*
X120958141Y-106075000D01*
X121041859Y-106075000D01*
X121123968Y-106058667D01*
X121201313Y-106026630D01*
X121270921Y-105980119D01*
X121330119Y-105920921D01*
X121376630Y-105851313D01*
X121408667Y-105773968D01*
X121425000Y-105691859D01*
X121425000Y-105608141D01*
X121415055Y-105558141D01*
X122475000Y-105558141D01*
X122475000Y-105641859D01*
X122491333Y-105723968D01*
X122523370Y-105801313D01*
X122569881Y-105870921D01*
X122629079Y-105930119D01*
X122698687Y-105976630D01*
X122776032Y-106008667D01*
X122858141Y-106025000D01*
X122941859Y-106025000D01*
X123023968Y-106008667D01*
X123101313Y-105976630D01*
X123170921Y-105930119D01*
X123230119Y-105870921D01*
X123276630Y-105801313D01*
X123308667Y-105723968D01*
X123325000Y-105641859D01*
X123325000Y-105558141D01*
X123725000Y-105558141D01*
X123725000Y-105641859D01*
X123741333Y-105723968D01*
X123773370Y-105801313D01*
X123819881Y-105870921D01*
X123879079Y-105930119D01*
X123948687Y-105976630D01*
X124026032Y-106008667D01*
X124108141Y-106025000D01*
X124191859Y-106025000D01*
X124273968Y-106008667D01*
X124351313Y-105976630D01*
X124420921Y-105930119D01*
X124480119Y-105870921D01*
X124525000Y-105803752D01*
X124569881Y-105870921D01*
X124629079Y-105930119D01*
X124698687Y-105976630D01*
X124776032Y-106008667D01*
X124858141Y-106025000D01*
X124941859Y-106025000D01*
X125023968Y-106008667D01*
X125101313Y-105976630D01*
X125170921Y-105930119D01*
X125230119Y-105870921D01*
X125276630Y-105801313D01*
X125308667Y-105723968D01*
X125325000Y-105641859D01*
X125325000Y-105558141D01*
X125308667Y-105476032D01*
X125276630Y-105398687D01*
X125230119Y-105329079D01*
X125170921Y-105269881D01*
X125101313Y-105223370D01*
X125023968Y-105191333D01*
X124941859Y-105175000D01*
X124858141Y-105175000D01*
X124776032Y-105191333D01*
X124698687Y-105223370D01*
X124629079Y-105269881D01*
X124569881Y-105329079D01*
X124525000Y-105396248D01*
X124480119Y-105329079D01*
X124420921Y-105269881D01*
X124351313Y-105223370D01*
X124273968Y-105191333D01*
X124191859Y-105175000D01*
X124108141Y-105175000D01*
X124026032Y-105191333D01*
X123948687Y-105223370D01*
X123879079Y-105269881D01*
X123819881Y-105329079D01*
X123773370Y-105398687D01*
X123741333Y-105476032D01*
X123725000Y-105558141D01*
X123325000Y-105558141D01*
X123308667Y-105476032D01*
X123276630Y-105398687D01*
X123230119Y-105329079D01*
X123170921Y-105269881D01*
X123101313Y-105223370D01*
X123023968Y-105191333D01*
X122941859Y-105175000D01*
X122858141Y-105175000D01*
X122776032Y-105191333D01*
X122698687Y-105223370D01*
X122629079Y-105269881D01*
X122569881Y-105329079D01*
X122523370Y-105398687D01*
X122491333Y-105476032D01*
X122475000Y-105558141D01*
X121415055Y-105558141D01*
X121408667Y-105526032D01*
X121376630Y-105448687D01*
X121330119Y-105379079D01*
X121270921Y-105319881D01*
X121201313Y-105273370D01*
X121123968Y-105241333D01*
X121041859Y-105225000D01*
X120958141Y-105225000D01*
X120876032Y-105241333D01*
X120798687Y-105273370D01*
X120729079Y-105319881D01*
X120669881Y-105379079D01*
X120623370Y-105448687D01*
X120591333Y-105526032D01*
X120575000Y-105608141D01*
X112716784Y-105608141D01*
X112815589Y-105509336D01*
X112930498Y-105337362D01*
X113009650Y-105146274D01*
X113050000Y-104943416D01*
X113050000Y-104736584D01*
X113009650Y-104533726D01*
X112930498Y-104342638D01*
X112815589Y-104170664D01*
X112669336Y-104024411D01*
X112497362Y-103909502D01*
X112306274Y-103830350D01*
X112103416Y-103790000D01*
X111896584Y-103790000D01*
X111693726Y-103830350D01*
X111502638Y-103909502D01*
X111330664Y-104024411D01*
X111184411Y-104170664D01*
X111069502Y-104342638D01*
X110990350Y-104533726D01*
X110950000Y-104736584D01*
X110510000Y-104736584D01*
X110469650Y-104533726D01*
X110390498Y-104342638D01*
X110275589Y-104170664D01*
X110129336Y-104024411D01*
X109957362Y-103909502D01*
X109766274Y-103830350D01*
X109563416Y-103790000D01*
X109356584Y-103790000D01*
X109153726Y-103830350D01*
X108962638Y-103909502D01*
X108790664Y-104024411D01*
X108644411Y-104170664D01*
X108529502Y-104342638D01*
X108450350Y-104533726D01*
X108410000Y-104736584D01*
X107550000Y-104736584D01*
X107550000Y-103758141D01*
X119075000Y-103758141D01*
X119075000Y-103841859D01*
X119091333Y-103923968D01*
X119123370Y-104001313D01*
X119169881Y-104070921D01*
X119229079Y-104130119D01*
X119298687Y-104176630D01*
X119376032Y-104208667D01*
X119458141Y-104225000D01*
X119541859Y-104225000D01*
X119623968Y-104208667D01*
X119701313Y-104176630D01*
X119770921Y-104130119D01*
X119830119Y-104070921D01*
X119876630Y-104001313D01*
X119908667Y-103923968D01*
X119925000Y-103841859D01*
X119925000Y-103758141D01*
X119908667Y-103676032D01*
X119876630Y-103598687D01*
X119830119Y-103529079D01*
X119770921Y-103469881D01*
X119766167Y-103466705D01*
X119820921Y-103430119D01*
X119880119Y-103370921D01*
X119926630Y-103301313D01*
X119958667Y-103223968D01*
X119975000Y-103141859D01*
X119975000Y-103058141D01*
X119958667Y-102976032D01*
X119926630Y-102898687D01*
X119899538Y-102858141D01*
X127025000Y-102858141D01*
X127025000Y-102941859D01*
X127041333Y-103023968D01*
X127073370Y-103101313D01*
X127119881Y-103170921D01*
X127179079Y-103230119D01*
X127248687Y-103276630D01*
X127326032Y-103308667D01*
X127408141Y-103325000D01*
X127491859Y-103325000D01*
X127573968Y-103308667D01*
X127651313Y-103276630D01*
X127720921Y-103230119D01*
X127780119Y-103170921D01*
X127826630Y-103101313D01*
X127858667Y-103023968D01*
X127875000Y-102941859D01*
X127875000Y-102858141D01*
X127858667Y-102776032D01*
X127826630Y-102698687D01*
X127780119Y-102629079D01*
X127720921Y-102569881D01*
X127651313Y-102523370D01*
X127573968Y-102491333D01*
X127491859Y-102475000D01*
X127408141Y-102475000D01*
X127326032Y-102491333D01*
X127248687Y-102523370D01*
X127179079Y-102569881D01*
X127119881Y-102629079D01*
X127073370Y-102698687D01*
X127041333Y-102776032D01*
X127025000Y-102858141D01*
X119899538Y-102858141D01*
X119880119Y-102829079D01*
X119820921Y-102769881D01*
X119751313Y-102723370D01*
X119673968Y-102691333D01*
X119591859Y-102675000D01*
X119508141Y-102675000D01*
X119426032Y-102691333D01*
X119348687Y-102723370D01*
X119279079Y-102769881D01*
X119219881Y-102829079D01*
X119173370Y-102898687D01*
X119141333Y-102976032D01*
X119125000Y-103058141D01*
X119125000Y-103141859D01*
X119141333Y-103223968D01*
X119173370Y-103301313D01*
X119219881Y-103370921D01*
X119279079Y-103430119D01*
X119283833Y-103433295D01*
X119229079Y-103469881D01*
X119169881Y-103529079D01*
X119123370Y-103598687D01*
X119091333Y-103676032D01*
X119075000Y-103758141D01*
X107550000Y-103758141D01*
X107550000Y-102196584D01*
X108410000Y-102196584D01*
X108410000Y-102403416D01*
X108450350Y-102606274D01*
X108529502Y-102797362D01*
X108644411Y-102969336D01*
X108790664Y-103115589D01*
X108962638Y-103230498D01*
X109153726Y-103309650D01*
X109356584Y-103350000D01*
X109563416Y-103350000D01*
X109766274Y-103309650D01*
X109957362Y-103230498D01*
X110129336Y-103115589D01*
X110275589Y-102969336D01*
X110390498Y-102797362D01*
X110469650Y-102606274D01*
X110510000Y-102403416D01*
X110510000Y-102196584D01*
X110950000Y-102196584D01*
X110950000Y-102403416D01*
X110990350Y-102606274D01*
X111069502Y-102797362D01*
X111184411Y-102969336D01*
X111330664Y-103115589D01*
X111502638Y-103230498D01*
X111693726Y-103309650D01*
X111896584Y-103350000D01*
X112103416Y-103350000D01*
X112306274Y-103309650D01*
X112497362Y-103230498D01*
X112669336Y-103115589D01*
X112815589Y-102969336D01*
X112930498Y-102797362D01*
X113009650Y-102606274D01*
X113050000Y-102403416D01*
X113050000Y-102196584D01*
X113009650Y-101993726D01*
X112930498Y-101802638D01*
X112815589Y-101630664D01*
X112669336Y-101484411D01*
X112497362Y-101369502D01*
X112306274Y-101290350D01*
X112103416Y-101250000D01*
X111896584Y-101250000D01*
X111693726Y-101290350D01*
X111502638Y-101369502D01*
X111330664Y-101484411D01*
X111184411Y-101630664D01*
X111069502Y-101802638D01*
X110990350Y-101993726D01*
X110950000Y-102196584D01*
X110510000Y-102196584D01*
X110469650Y-101993726D01*
X110390498Y-101802638D01*
X110275589Y-101630664D01*
X110129336Y-101484411D01*
X109957362Y-101369502D01*
X109766274Y-101290350D01*
X109563416Y-101250000D01*
X109356584Y-101250000D01*
X109153726Y-101290350D01*
X108962638Y-101369502D01*
X108790664Y-101484411D01*
X108644411Y-101630664D01*
X108529502Y-101802638D01*
X108450350Y-101993726D01*
X108410000Y-102196584D01*
X107550000Y-102196584D01*
X107550000Y-99656584D01*
X108410000Y-99656584D01*
X108410000Y-99863416D01*
X108450350Y-100066274D01*
X108529502Y-100257362D01*
X108644411Y-100429336D01*
X108790664Y-100575589D01*
X108962638Y-100690498D01*
X109153726Y-100769650D01*
X109356584Y-100810000D01*
X109563416Y-100810000D01*
X109766274Y-100769650D01*
X109957362Y-100690498D01*
X110129336Y-100575589D01*
X110275589Y-100429336D01*
X110390498Y-100257362D01*
X110469650Y-100066274D01*
X110510000Y-99863416D01*
X110510000Y-99656584D01*
X110950000Y-99656584D01*
X110950000Y-99863416D01*
X110990350Y-100066274D01*
X111069502Y-100257362D01*
X111184411Y-100429336D01*
X111330664Y-100575589D01*
X111502638Y-100690498D01*
X111693726Y-100769650D01*
X111896584Y-100810000D01*
X112103416Y-100810000D01*
X112306274Y-100769650D01*
X112497362Y-100690498D01*
X112545787Y-100658141D01*
X120525000Y-100658141D01*
X120525000Y-100741859D01*
X120541333Y-100823968D01*
X120573370Y-100901313D01*
X120619881Y-100970921D01*
X120679079Y-101030119D01*
X120748687Y-101076630D01*
X120826032Y-101108667D01*
X120908141Y-101125000D01*
X120991859Y-101125000D01*
X121073968Y-101108667D01*
X121151313Y-101076630D01*
X121220921Y-101030119D01*
X121280119Y-100970921D01*
X121326630Y-100901313D01*
X121358667Y-100823968D01*
X121375000Y-100741859D01*
X121375000Y-100658141D01*
X121358667Y-100576032D01*
X121351257Y-100558141D01*
X123725000Y-100558141D01*
X123725000Y-100641859D01*
X123741333Y-100723968D01*
X123773370Y-100801313D01*
X123819881Y-100870921D01*
X123879079Y-100930119D01*
X123948687Y-100976630D01*
X124026032Y-101008667D01*
X124108141Y-101025000D01*
X124191859Y-101025000D01*
X124273968Y-101008667D01*
X124351313Y-100976630D01*
X124420921Y-100930119D01*
X124480119Y-100870921D01*
X124526630Y-100801313D01*
X124558667Y-100723968D01*
X124575000Y-100641859D01*
X124575000Y-100558141D01*
X125575000Y-100558141D01*
X125575000Y-100641859D01*
X125591333Y-100723968D01*
X125623370Y-100801313D01*
X125669881Y-100870921D01*
X125729079Y-100930119D01*
X125798687Y-100976630D01*
X125876032Y-101008667D01*
X125958141Y-101025000D01*
X126041859Y-101025000D01*
X126123968Y-101008667D01*
X126201313Y-100976630D01*
X126270921Y-100930119D01*
X126330119Y-100870921D01*
X126376630Y-100801313D01*
X126408667Y-100723968D01*
X126425000Y-100641859D01*
X126425000Y-100558141D01*
X126408667Y-100476032D01*
X126376630Y-100398687D01*
X126330119Y-100329079D01*
X126270921Y-100269881D01*
X126201313Y-100223370D01*
X126123968Y-100191333D01*
X126041859Y-100175000D01*
X125958141Y-100175000D01*
X125876032Y-100191333D01*
X125798687Y-100223370D01*
X125729079Y-100269881D01*
X125669881Y-100329079D01*
X125623370Y-100398687D01*
X125591333Y-100476032D01*
X125575000Y-100558141D01*
X124575000Y-100558141D01*
X124558667Y-100476032D01*
X124526630Y-100398687D01*
X124480119Y-100329079D01*
X124420921Y-100269881D01*
X124351313Y-100223370D01*
X124273968Y-100191333D01*
X124191859Y-100175000D01*
X124108141Y-100175000D01*
X124026032Y-100191333D01*
X123948687Y-100223370D01*
X123879079Y-100269881D01*
X123819881Y-100329079D01*
X123773370Y-100398687D01*
X123741333Y-100476032D01*
X123725000Y-100558141D01*
X121351257Y-100558141D01*
X121326630Y-100498687D01*
X121280119Y-100429079D01*
X121220921Y-100369881D01*
X121151313Y-100323370D01*
X121073968Y-100291333D01*
X120991859Y-100275000D01*
X120908141Y-100275000D01*
X120826032Y-100291333D01*
X120748687Y-100323370D01*
X120679079Y-100369881D01*
X120619881Y-100429079D01*
X120573370Y-100498687D01*
X120541333Y-100576032D01*
X120525000Y-100658141D01*
X112545787Y-100658141D01*
X112669336Y-100575589D01*
X112815589Y-100429336D01*
X112930498Y-100257362D01*
X113009650Y-100066274D01*
X113050000Y-99863416D01*
X113050000Y-99656584D01*
X113009650Y-99453726D01*
X112930498Y-99262638D01*
X112827267Y-99108141D01*
X122225000Y-99108141D01*
X122225000Y-99191859D01*
X122241333Y-99273968D01*
X122273370Y-99351313D01*
X122319881Y-99420921D01*
X122379079Y-99480119D01*
X122448687Y-99526630D01*
X122526032Y-99558667D01*
X122608141Y-99575000D01*
X122691859Y-99575000D01*
X122773968Y-99558667D01*
X122851313Y-99526630D01*
X122920921Y-99480119D01*
X122980119Y-99420921D01*
X123026630Y-99351313D01*
X123058667Y-99273968D01*
X123075000Y-99191859D01*
X123075000Y-99108141D01*
X123058667Y-99026032D01*
X123034689Y-98968141D01*
X125275000Y-98968141D01*
X125275000Y-99051859D01*
X125291333Y-99133968D01*
X125323370Y-99211313D01*
X125369881Y-99280921D01*
X125429079Y-99340119D01*
X125498687Y-99386630D01*
X125576032Y-99418667D01*
X125658141Y-99435000D01*
X125741859Y-99435000D01*
X125823968Y-99418667D01*
X125901313Y-99386630D01*
X125970921Y-99340119D01*
X126030119Y-99280921D01*
X126064390Y-99229632D01*
X126073370Y-99251313D01*
X126119881Y-99320921D01*
X126179079Y-99380119D01*
X126248687Y-99426630D01*
X126326032Y-99458667D01*
X126408141Y-99475000D01*
X126491859Y-99475000D01*
X126573968Y-99458667D01*
X126651313Y-99426630D01*
X126720921Y-99380119D01*
X126780119Y-99320921D01*
X126826630Y-99251313D01*
X126858667Y-99173968D01*
X126875000Y-99091859D01*
X126875000Y-99008141D01*
X126858667Y-98926032D01*
X126826630Y-98848687D01*
X126780119Y-98779079D01*
X126720921Y-98719881D01*
X126651313Y-98673370D01*
X126573968Y-98641333D01*
X126491859Y-98625000D01*
X126408141Y-98625000D01*
X126326032Y-98641333D01*
X126248687Y-98673370D01*
X126179079Y-98719881D01*
X126119881Y-98779079D01*
X126085610Y-98830368D01*
X126076630Y-98808687D01*
X126030119Y-98739079D01*
X125970921Y-98679881D01*
X125901313Y-98633370D01*
X125823968Y-98601333D01*
X125741859Y-98585000D01*
X125658141Y-98585000D01*
X125576032Y-98601333D01*
X125498687Y-98633370D01*
X125429079Y-98679881D01*
X125369881Y-98739079D01*
X125323370Y-98808687D01*
X125291333Y-98886032D01*
X125275000Y-98968141D01*
X123034689Y-98968141D01*
X123026630Y-98948687D01*
X122980119Y-98879079D01*
X122920921Y-98819881D01*
X122851313Y-98773370D01*
X122773968Y-98741333D01*
X122691859Y-98725000D01*
X122608141Y-98725000D01*
X122526032Y-98741333D01*
X122448687Y-98773370D01*
X122379079Y-98819881D01*
X122319881Y-98879079D01*
X122273370Y-98948687D01*
X122241333Y-99026032D01*
X122225000Y-99108141D01*
X112827267Y-99108141D01*
X112815589Y-99090664D01*
X112669336Y-98944411D01*
X112497362Y-98829502D01*
X112306274Y-98750350D01*
X112103416Y-98710000D01*
X111896584Y-98710000D01*
X111693726Y-98750350D01*
X111502638Y-98829502D01*
X111330664Y-98944411D01*
X111184411Y-99090664D01*
X111069502Y-99262638D01*
X110990350Y-99453726D01*
X110950000Y-99656584D01*
X110510000Y-99656584D01*
X110469650Y-99453726D01*
X110390498Y-99262638D01*
X110275589Y-99090664D01*
X110129336Y-98944411D01*
X109957362Y-98829502D01*
X109766274Y-98750350D01*
X109563416Y-98710000D01*
X109356584Y-98710000D01*
X109153726Y-98750350D01*
X108962638Y-98829502D01*
X108790664Y-98944411D01*
X108644411Y-99090664D01*
X108529502Y-99262638D01*
X108450350Y-99453726D01*
X108410000Y-99656584D01*
X107550000Y-99656584D01*
X107550000Y-97116584D01*
X108410000Y-97116584D01*
X108410000Y-97323416D01*
X108450350Y-97526274D01*
X108529502Y-97717362D01*
X108644411Y-97889336D01*
X108790664Y-98035589D01*
X108962638Y-98150498D01*
X109153726Y-98229650D01*
X109356584Y-98270000D01*
X109563416Y-98270000D01*
X109766274Y-98229650D01*
X109957362Y-98150498D01*
X110129336Y-98035589D01*
X110275589Y-97889336D01*
X110390498Y-97717362D01*
X110469650Y-97526274D01*
X110510000Y-97323416D01*
X110510000Y-97116584D01*
X110950000Y-97116584D01*
X110950000Y-97323416D01*
X110990350Y-97526274D01*
X111069502Y-97717362D01*
X111184411Y-97889336D01*
X111330664Y-98035589D01*
X111502638Y-98150498D01*
X111693726Y-98229650D01*
X111896584Y-98270000D01*
X112103416Y-98270000D01*
X112306274Y-98229650D01*
X112497362Y-98150498D01*
X112669336Y-98035589D01*
X112746784Y-97958141D01*
X133575000Y-97958141D01*
X133575000Y-98041859D01*
X133591333Y-98123968D01*
X133623370Y-98201313D01*
X133669881Y-98270921D01*
X133729079Y-98330119D01*
X133798687Y-98376630D01*
X133876032Y-98408667D01*
X133958141Y-98425000D01*
X134041859Y-98425000D01*
X134123968Y-98408667D01*
X134201313Y-98376630D01*
X134270921Y-98330119D01*
X134330119Y-98270921D01*
X134376630Y-98201313D01*
X134408667Y-98123968D01*
X134425000Y-98041859D01*
X134425000Y-97958141D01*
X134575000Y-97958141D01*
X134575000Y-98041859D01*
X134591333Y-98123968D01*
X134623370Y-98201313D01*
X134669881Y-98270921D01*
X134729079Y-98330119D01*
X134798687Y-98376630D01*
X134876032Y-98408667D01*
X134958141Y-98425000D01*
X135041859Y-98425000D01*
X135123968Y-98408667D01*
X135201313Y-98376630D01*
X135270921Y-98330119D01*
X135330119Y-98270921D01*
X135376630Y-98201313D01*
X135408667Y-98123968D01*
X135425000Y-98041859D01*
X135425000Y-97958141D01*
X135575000Y-97958141D01*
X135575000Y-98041859D01*
X135591333Y-98123968D01*
X135623370Y-98201313D01*
X135669881Y-98270921D01*
X135729079Y-98330119D01*
X135798687Y-98376630D01*
X135876032Y-98408667D01*
X135958141Y-98425000D01*
X136041859Y-98425000D01*
X136123968Y-98408667D01*
X136201313Y-98376630D01*
X136270921Y-98330119D01*
X136330119Y-98270921D01*
X136376630Y-98201313D01*
X136408667Y-98123968D01*
X136425000Y-98041859D01*
X136425000Y-97958141D01*
X136408667Y-97876032D01*
X136376630Y-97798687D01*
X136330119Y-97729079D01*
X136270921Y-97669881D01*
X136201313Y-97623370D01*
X136123968Y-97591333D01*
X136041859Y-97575000D01*
X135958141Y-97575000D01*
X135876032Y-97591333D01*
X135798687Y-97623370D01*
X135729079Y-97669881D01*
X135669881Y-97729079D01*
X135623370Y-97798687D01*
X135591333Y-97876032D01*
X135575000Y-97958141D01*
X135425000Y-97958141D01*
X135408667Y-97876032D01*
X135376630Y-97798687D01*
X135330119Y-97729079D01*
X135270921Y-97669881D01*
X135201313Y-97623370D01*
X135123968Y-97591333D01*
X135041859Y-97575000D01*
X134958141Y-97575000D01*
X134876032Y-97591333D01*
X134798687Y-97623370D01*
X134729079Y-97669881D01*
X134669881Y-97729079D01*
X134623370Y-97798687D01*
X134591333Y-97876032D01*
X134575000Y-97958141D01*
X134425000Y-97958141D01*
X134408667Y-97876032D01*
X134376630Y-97798687D01*
X134330119Y-97729079D01*
X134270921Y-97669881D01*
X134201313Y-97623370D01*
X134123968Y-97591333D01*
X134041859Y-97575000D01*
X133958141Y-97575000D01*
X133876032Y-97591333D01*
X133798687Y-97623370D01*
X133729079Y-97669881D01*
X133669881Y-97729079D01*
X133623370Y-97798687D01*
X133591333Y-97876032D01*
X133575000Y-97958141D01*
X112746784Y-97958141D01*
X112815589Y-97889336D01*
X112930498Y-97717362D01*
X113009650Y-97526274D01*
X113050000Y-97323416D01*
X113050000Y-97116584D01*
X113018485Y-96958141D01*
X133575000Y-96958141D01*
X133575000Y-97041859D01*
X133591333Y-97123968D01*
X133623370Y-97201313D01*
X133669881Y-97270921D01*
X133729079Y-97330119D01*
X133798687Y-97376630D01*
X133876032Y-97408667D01*
X133958141Y-97425000D01*
X134041859Y-97425000D01*
X134123968Y-97408667D01*
X134201313Y-97376630D01*
X134270921Y-97330119D01*
X134330119Y-97270921D01*
X134376630Y-97201313D01*
X134408667Y-97123968D01*
X134425000Y-97041859D01*
X134425000Y-96958141D01*
X134575000Y-96958141D01*
X134575000Y-97041859D01*
X134591333Y-97123968D01*
X134623370Y-97201313D01*
X134669881Y-97270921D01*
X134729079Y-97330119D01*
X134798687Y-97376630D01*
X134876032Y-97408667D01*
X134958141Y-97425000D01*
X135041859Y-97425000D01*
X135123968Y-97408667D01*
X135201313Y-97376630D01*
X135270921Y-97330119D01*
X135330119Y-97270921D01*
X135376630Y-97201313D01*
X135408667Y-97123968D01*
X135425000Y-97041859D01*
X135425000Y-96958141D01*
X135575000Y-96958141D01*
X135575000Y-97041859D01*
X135591333Y-97123968D01*
X135623370Y-97201313D01*
X135669881Y-97270921D01*
X135729079Y-97330119D01*
X135798687Y-97376630D01*
X135876032Y-97408667D01*
X135958141Y-97425000D01*
X136041859Y-97425000D01*
X136123968Y-97408667D01*
X136201313Y-97376630D01*
X136270921Y-97330119D01*
X136330119Y-97270921D01*
X136376630Y-97201313D01*
X136408667Y-97123968D01*
X136425000Y-97041859D01*
X136425000Y-96958141D01*
X136408667Y-96876032D01*
X136376630Y-96798687D01*
X136330119Y-96729079D01*
X136270921Y-96669881D01*
X136201313Y-96623370D01*
X136123968Y-96591333D01*
X136041859Y-96575000D01*
X135958141Y-96575000D01*
X135876032Y-96591333D01*
X135798687Y-96623370D01*
X135729079Y-96669881D01*
X135669881Y-96729079D01*
X135623370Y-96798687D01*
X135591333Y-96876032D01*
X135575000Y-96958141D01*
X135425000Y-96958141D01*
X135408667Y-96876032D01*
X135376630Y-96798687D01*
X135330119Y-96729079D01*
X135270921Y-96669881D01*
X135201313Y-96623370D01*
X135123968Y-96591333D01*
X135041859Y-96575000D01*
X134958141Y-96575000D01*
X134876032Y-96591333D01*
X134798687Y-96623370D01*
X134729079Y-96669881D01*
X134669881Y-96729079D01*
X134623370Y-96798687D01*
X134591333Y-96876032D01*
X134575000Y-96958141D01*
X134425000Y-96958141D01*
X134408667Y-96876032D01*
X134376630Y-96798687D01*
X134330119Y-96729079D01*
X134270921Y-96669881D01*
X134201313Y-96623370D01*
X134123968Y-96591333D01*
X134041859Y-96575000D01*
X133958141Y-96575000D01*
X133876032Y-96591333D01*
X133798687Y-96623370D01*
X133729079Y-96669881D01*
X133669881Y-96729079D01*
X133623370Y-96798687D01*
X133591333Y-96876032D01*
X133575000Y-96958141D01*
X113018485Y-96958141D01*
X113009650Y-96913726D01*
X112930498Y-96722638D01*
X112815589Y-96550664D01*
X112669336Y-96404411D01*
X112497362Y-96289502D01*
X112306274Y-96210350D01*
X112103416Y-96170000D01*
X111896584Y-96170000D01*
X111693726Y-96210350D01*
X111502638Y-96289502D01*
X111330664Y-96404411D01*
X111184411Y-96550664D01*
X111069502Y-96722638D01*
X110990350Y-96913726D01*
X110950000Y-97116584D01*
X110510000Y-97116584D01*
X110469650Y-96913726D01*
X110390498Y-96722638D01*
X110275589Y-96550664D01*
X110129336Y-96404411D01*
X109957362Y-96289502D01*
X109766274Y-96210350D01*
X109563416Y-96170000D01*
X109356584Y-96170000D01*
X109153726Y-96210350D01*
X108962638Y-96289502D01*
X108790664Y-96404411D01*
X108644411Y-96550664D01*
X108529502Y-96722638D01*
X108450350Y-96913726D01*
X108410000Y-97116584D01*
X107550000Y-97116584D01*
X107550000Y-94576584D01*
X108410000Y-94576584D01*
X108410000Y-94783416D01*
X108450350Y-94986274D01*
X108529502Y-95177362D01*
X108644411Y-95349336D01*
X108790664Y-95495589D01*
X108962638Y-95610498D01*
X109153726Y-95689650D01*
X109356584Y-95730000D01*
X109563416Y-95730000D01*
X109766274Y-95689650D01*
X109957362Y-95610498D01*
X110129336Y-95495589D01*
X110275589Y-95349336D01*
X110390498Y-95177362D01*
X110469650Y-94986274D01*
X110510000Y-94783416D01*
X110510000Y-94576584D01*
X110950000Y-94576584D01*
X110950000Y-94783416D01*
X110990350Y-94986274D01*
X111069502Y-95177362D01*
X111184411Y-95349336D01*
X111330664Y-95495589D01*
X111502638Y-95610498D01*
X111693726Y-95689650D01*
X111896584Y-95730000D01*
X112103416Y-95730000D01*
X112306274Y-95689650D01*
X112497362Y-95610498D01*
X112669336Y-95495589D01*
X112815589Y-95349336D01*
X112930498Y-95177362D01*
X113009650Y-94986274D01*
X113050000Y-94783416D01*
X113050000Y-94576584D01*
X113009650Y-94373726D01*
X112930498Y-94182638D01*
X112815589Y-94010664D01*
X112669336Y-93864411D01*
X112497362Y-93749502D01*
X112306274Y-93670350D01*
X112103416Y-93630000D01*
X111896584Y-93630000D01*
X111693726Y-93670350D01*
X111502638Y-93749502D01*
X111330664Y-93864411D01*
X111184411Y-94010664D01*
X111069502Y-94182638D01*
X110990350Y-94373726D01*
X110950000Y-94576584D01*
X110510000Y-94576584D01*
X110469650Y-94373726D01*
X110390498Y-94182638D01*
X110275589Y-94010664D01*
X110129336Y-93864411D01*
X109957362Y-93749502D01*
X109766274Y-93670350D01*
X109563416Y-93630000D01*
X109356584Y-93630000D01*
X109153726Y-93670350D01*
X108962638Y-93749502D01*
X108790664Y-93864411D01*
X108644411Y-94010664D01*
X108529502Y-94182638D01*
X108450350Y-94373726D01*
X108410000Y-94576584D01*
X107550000Y-94576584D01*
X107550000Y-92036584D01*
X108410000Y-92036584D01*
X108410000Y-92243416D01*
X108450350Y-92446274D01*
X108529502Y-92637362D01*
X108644411Y-92809336D01*
X108790664Y-92955589D01*
X108962638Y-93070498D01*
X109153726Y-93149650D01*
X109356584Y-93190000D01*
X109563416Y-93190000D01*
X109766274Y-93149650D01*
X109957362Y-93070498D01*
X110129336Y-92955589D01*
X110275589Y-92809336D01*
X110390498Y-92637362D01*
X110469650Y-92446274D01*
X110510000Y-92243416D01*
X110510000Y-92036584D01*
X110950000Y-92036584D01*
X110950000Y-92243416D01*
X110990350Y-92446274D01*
X111069502Y-92637362D01*
X111184411Y-92809336D01*
X111330664Y-92955589D01*
X111502638Y-93070498D01*
X111693726Y-93149650D01*
X111896584Y-93190000D01*
X112103416Y-93190000D01*
X112306274Y-93149650D01*
X112497362Y-93070498D01*
X112669336Y-92955589D01*
X112815589Y-92809336D01*
X112930498Y-92637362D01*
X113009650Y-92446274D01*
X113050000Y-92243416D01*
X113050000Y-92036584D01*
X113009650Y-91833726D01*
X112930498Y-91642638D01*
X112815589Y-91470664D01*
X112669336Y-91324411D01*
X112497362Y-91209502D01*
X112306274Y-91130350D01*
X112103416Y-91090000D01*
X111896584Y-91090000D01*
X111693726Y-91130350D01*
X111502638Y-91209502D01*
X111330664Y-91324411D01*
X111184411Y-91470664D01*
X111069502Y-91642638D01*
X110990350Y-91833726D01*
X110950000Y-92036584D01*
X110510000Y-92036584D01*
X110469650Y-91833726D01*
X110390498Y-91642638D01*
X110275589Y-91470664D01*
X110129336Y-91324411D01*
X109957362Y-91209502D01*
X109766274Y-91130350D01*
X109563416Y-91090000D01*
X109356584Y-91090000D01*
X109153726Y-91130350D01*
X108962638Y-91209502D01*
X108790664Y-91324411D01*
X108644411Y-91470664D01*
X108529502Y-91642638D01*
X108450350Y-91833726D01*
X108410000Y-92036584D01*
X107550000Y-92036584D01*
X107550000Y-89496584D01*
X108410000Y-89496584D01*
X108410000Y-89703416D01*
X108450350Y-89906274D01*
X108529502Y-90097362D01*
X108644411Y-90269336D01*
X108790664Y-90415589D01*
X108962638Y-90530498D01*
X109153726Y-90609650D01*
X109356584Y-90650000D01*
X109563416Y-90650000D01*
X109766274Y-90609650D01*
X109957362Y-90530498D01*
X110129336Y-90415589D01*
X110275589Y-90269336D01*
X110390498Y-90097362D01*
X110469650Y-89906274D01*
X110510000Y-89703416D01*
X110510000Y-89496584D01*
X110950000Y-89496584D01*
X110950000Y-89703416D01*
X110990350Y-89906274D01*
X111069502Y-90097362D01*
X111184411Y-90269336D01*
X111330664Y-90415589D01*
X111502638Y-90530498D01*
X111693726Y-90609650D01*
X111896584Y-90650000D01*
X112103416Y-90650000D01*
X112306274Y-90609650D01*
X112497362Y-90530498D01*
X112669336Y-90415589D01*
X112815589Y-90269336D01*
X112930498Y-90097362D01*
X113009650Y-89906274D01*
X113050000Y-89703416D01*
X113050000Y-89496584D01*
X113009650Y-89293726D01*
X112930498Y-89102638D01*
X112815589Y-88930664D01*
X112669336Y-88784411D01*
X112497362Y-88669502D01*
X112306274Y-88590350D01*
X112103416Y-88550000D01*
X111896584Y-88550000D01*
X111693726Y-88590350D01*
X111502638Y-88669502D01*
X111330664Y-88784411D01*
X111184411Y-88930664D01*
X111069502Y-89102638D01*
X110990350Y-89293726D01*
X110950000Y-89496584D01*
X110510000Y-89496584D01*
X110469650Y-89293726D01*
X110390498Y-89102638D01*
X110275589Y-88930664D01*
X110129336Y-88784411D01*
X109957362Y-88669502D01*
X109766274Y-88590350D01*
X109563416Y-88550000D01*
X109356584Y-88550000D01*
X109153726Y-88590350D01*
X108962638Y-88669502D01*
X108790664Y-88784411D01*
X108644411Y-88930664D01*
X108529502Y-89102638D01*
X108450350Y-89293726D01*
X108410000Y-89496584D01*
X107550000Y-89496584D01*
X107550000Y-86956584D01*
X108410000Y-86956584D01*
X108410000Y-87163416D01*
X108450350Y-87366274D01*
X108529502Y-87557362D01*
X108644411Y-87729336D01*
X108790664Y-87875589D01*
X108962638Y-87990498D01*
X109153726Y-88069650D01*
X109356584Y-88110000D01*
X109563416Y-88110000D01*
X109766274Y-88069650D01*
X109957362Y-87990498D01*
X110129336Y-87875589D01*
X110275589Y-87729336D01*
X110390498Y-87557362D01*
X110469650Y-87366274D01*
X110510000Y-87163416D01*
X110510000Y-86956584D01*
X110950000Y-86956584D01*
X110950000Y-87163416D01*
X110990350Y-87366274D01*
X111069502Y-87557362D01*
X111184411Y-87729336D01*
X111330664Y-87875589D01*
X111502638Y-87990498D01*
X111693726Y-88069650D01*
X111896584Y-88110000D01*
X112103416Y-88110000D01*
X112306274Y-88069650D01*
X112497362Y-87990498D01*
X112669336Y-87875589D01*
X112815589Y-87729336D01*
X112930498Y-87557362D01*
X113009650Y-87366274D01*
X113050000Y-87163416D01*
X113050000Y-86956584D01*
X113009650Y-86753726D01*
X112930498Y-86562638D01*
X112815589Y-86390664D01*
X112669336Y-86244411D01*
X112497362Y-86129502D01*
X112306274Y-86050350D01*
X112103416Y-86010000D01*
X111896584Y-86010000D01*
X111693726Y-86050350D01*
X111502638Y-86129502D01*
X111330664Y-86244411D01*
X111184411Y-86390664D01*
X111069502Y-86562638D01*
X110990350Y-86753726D01*
X110950000Y-86956584D01*
X110510000Y-86956584D01*
X110469650Y-86753726D01*
X110390498Y-86562638D01*
X110275589Y-86390664D01*
X110129336Y-86244411D01*
X109957362Y-86129502D01*
X109766274Y-86050350D01*
X109563416Y-86010000D01*
X109356584Y-86010000D01*
X109153726Y-86050350D01*
X108962638Y-86129502D01*
X108790664Y-86244411D01*
X108644411Y-86390664D01*
X108529502Y-86562638D01*
X108450350Y-86753726D01*
X108410000Y-86956584D01*
X107550000Y-86956584D01*
X107550000Y-84416584D01*
X108410000Y-84416584D01*
X108410000Y-84623416D01*
X108450350Y-84826274D01*
X108529502Y-85017362D01*
X108644411Y-85189336D01*
X108790664Y-85335589D01*
X108962638Y-85450498D01*
X109153726Y-85529650D01*
X109356584Y-85570000D01*
X109563416Y-85570000D01*
X109766274Y-85529650D01*
X109957362Y-85450498D01*
X110129336Y-85335589D01*
X110275589Y-85189336D01*
X110390498Y-85017362D01*
X110469650Y-84826274D01*
X110510000Y-84623416D01*
X110510000Y-84416584D01*
X110950000Y-84416584D01*
X110950000Y-84623416D01*
X110990350Y-84826274D01*
X111069502Y-85017362D01*
X111184411Y-85189336D01*
X111330664Y-85335589D01*
X111502638Y-85450498D01*
X111693726Y-85529650D01*
X111896584Y-85570000D01*
X112103416Y-85570000D01*
X112306274Y-85529650D01*
X112497362Y-85450498D01*
X112669336Y-85335589D01*
X112815589Y-85189336D01*
X112930498Y-85017362D01*
X113009650Y-84826274D01*
X113050000Y-84623416D01*
X113050000Y-84416584D01*
X113009650Y-84213726D01*
X112930498Y-84022638D01*
X112815589Y-83850664D01*
X112669336Y-83704411D01*
X112497362Y-83589502D01*
X112306274Y-83510350D01*
X112103416Y-83470000D01*
X111896584Y-83470000D01*
X111693726Y-83510350D01*
X111502638Y-83589502D01*
X111330664Y-83704411D01*
X111184411Y-83850664D01*
X111069502Y-84022638D01*
X110990350Y-84213726D01*
X110950000Y-84416584D01*
X110510000Y-84416584D01*
X110469650Y-84213726D01*
X110390498Y-84022638D01*
X110275589Y-83850664D01*
X110129336Y-83704411D01*
X109957362Y-83589502D01*
X109766274Y-83510350D01*
X109563416Y-83470000D01*
X109356584Y-83470000D01*
X109153726Y-83510350D01*
X108962638Y-83589502D01*
X108790664Y-83704411D01*
X108644411Y-83850664D01*
X108529502Y-84022638D01*
X108450350Y-84213726D01*
X108410000Y-84416584D01*
X107550000Y-84416584D01*
X107550000Y-80734073D01*
X132300000Y-80734073D01*
X132300000Y-81265927D01*
X132403760Y-81787561D01*
X132607291Y-82278930D01*
X132902773Y-82721150D01*
X133278850Y-83097227D01*
X133721070Y-83392709D01*
X134212439Y-83596240D01*
X134734073Y-83700000D01*
X135265927Y-83700000D01*
X135787561Y-83596240D01*
X136278930Y-83392709D01*
X136721150Y-83097227D01*
X137097227Y-82721150D01*
X137392709Y-82278930D01*
X137596240Y-81787561D01*
X137700000Y-81265927D01*
X137700000Y-80734073D01*
X137596240Y-80212439D01*
X137392709Y-79721070D01*
X137097227Y-79278850D01*
X136721150Y-78902773D01*
X136278930Y-78607291D01*
X135787561Y-78403760D01*
X135265927Y-78300000D01*
X134734073Y-78300000D01*
X134212439Y-78403760D01*
X133721070Y-78607291D01*
X133278850Y-78902773D01*
X132902773Y-79278850D01*
X132607291Y-79721070D01*
X132403760Y-80212439D01*
X132300000Y-80734073D01*
X107550000Y-80734073D01*
X107550000Y-79336584D01*
X108410000Y-79336584D01*
X108410000Y-79543416D01*
X108450350Y-79746274D01*
X108529502Y-79937362D01*
X108644411Y-80109336D01*
X108790664Y-80255589D01*
X108962638Y-80370498D01*
X109153726Y-80449650D01*
X109356584Y-80490000D01*
X109563416Y-80490000D01*
X109766274Y-80449650D01*
X109957362Y-80370498D01*
X110129336Y-80255589D01*
X110275589Y-80109336D01*
X110390498Y-79937362D01*
X110469650Y-79746274D01*
X110510000Y-79543416D01*
X110510000Y-79336584D01*
X110950000Y-79336584D01*
X110950000Y-79543416D01*
X110990350Y-79746274D01*
X111069502Y-79937362D01*
X111184411Y-80109336D01*
X111330664Y-80255589D01*
X111502638Y-80370498D01*
X111693726Y-80449650D01*
X111896584Y-80490000D01*
X112103416Y-80490000D01*
X112306274Y-80449650D01*
X112497362Y-80370498D01*
X112669336Y-80255589D01*
X112815589Y-80109336D01*
X112930498Y-79937362D01*
X113009650Y-79746274D01*
X113050000Y-79543416D01*
X113050000Y-79336584D01*
X113009650Y-79133726D01*
X112930498Y-78942638D01*
X112815589Y-78770664D01*
X112669336Y-78624411D01*
X112497362Y-78509502D01*
X112306274Y-78430350D01*
X112103416Y-78390000D01*
X111896584Y-78390000D01*
X111693726Y-78430350D01*
X111502638Y-78509502D01*
X111330664Y-78624411D01*
X111184411Y-78770664D01*
X111069502Y-78942638D01*
X110990350Y-79133726D01*
X110950000Y-79336584D01*
X110510000Y-79336584D01*
X110469650Y-79133726D01*
X110390498Y-78942638D01*
X110275589Y-78770664D01*
X110129336Y-78624411D01*
X109957362Y-78509502D01*
X109766274Y-78430350D01*
X109563416Y-78390000D01*
X109356584Y-78390000D01*
X109153726Y-78430350D01*
X108962638Y-78509502D01*
X108790664Y-78624411D01*
X108644411Y-78770664D01*
X108529502Y-78942638D01*
X108450350Y-79133726D01*
X108410000Y-79336584D01*
X107550000Y-79336584D01*
X107550000Y-77550000D01*
X138450000Y-77550000D01*
X138450000Y-129450000D01*
G04 #@! TA.AperFunction,Conductor*
G36*
X138450000Y-129450000D02*
G01*
X107550000Y-129450000D01*
X107550000Y-127596584D01*
X108410000Y-127596584D01*
X108410000Y-127803416D01*
X108450350Y-128006274D01*
X108529502Y-128197362D01*
X108644411Y-128369336D01*
X108790664Y-128515589D01*
X108962638Y-128630498D01*
X109153726Y-128709650D01*
X109356584Y-128750000D01*
X109563416Y-128750000D01*
X109766274Y-128709650D01*
X109957362Y-128630498D01*
X110129336Y-128515589D01*
X110275589Y-128369336D01*
X110390498Y-128197362D01*
X110469650Y-128006274D01*
X110510000Y-127803416D01*
X110510000Y-127596584D01*
X110469650Y-127393726D01*
X110390498Y-127202638D01*
X110275589Y-127030664D01*
X110129336Y-126884411D01*
X109957362Y-126769502D01*
X109766274Y-126690350D01*
X109563416Y-126650000D01*
X109356584Y-126650000D01*
X109153726Y-126690350D01*
X108962638Y-126769502D01*
X108790664Y-126884411D01*
X108644411Y-127030664D01*
X108529502Y-127202638D01*
X108450350Y-127393726D01*
X108410000Y-127596584D01*
X107550000Y-127596584D01*
X107550000Y-125056584D01*
X108410000Y-125056584D01*
X108410000Y-125263416D01*
X108450350Y-125466274D01*
X108529502Y-125657362D01*
X108644411Y-125829336D01*
X108790664Y-125975589D01*
X108962638Y-126090498D01*
X109153726Y-126169650D01*
X109356584Y-126210000D01*
X109563416Y-126210000D01*
X109766274Y-126169650D01*
X109957362Y-126090498D01*
X110129336Y-125975589D01*
X110275589Y-125829336D01*
X110390498Y-125657362D01*
X110469650Y-125466274D01*
X110510000Y-125263416D01*
X110510000Y-125056584D01*
X110950000Y-125056584D01*
X110950000Y-125263416D01*
X110990350Y-125466274D01*
X111069502Y-125657362D01*
X111184411Y-125829336D01*
X111330664Y-125975589D01*
X111502638Y-126090498D01*
X111693726Y-126169650D01*
X111896584Y-126210000D01*
X112103416Y-126210000D01*
X112306274Y-126169650D01*
X112497362Y-126090498D01*
X112669336Y-125975589D01*
X112815589Y-125829336D01*
X112879241Y-125734073D01*
X132300000Y-125734073D01*
X132300000Y-126265927D01*
X132403760Y-126787561D01*
X132607291Y-127278930D01*
X132902773Y-127721150D01*
X133278850Y-128097227D01*
X133721070Y-128392709D01*
X134212439Y-128596240D01*
X134734073Y-128700000D01*
X135265927Y-128700000D01*
X135787561Y-128596240D01*
X136278930Y-128392709D01*
X136721150Y-128097227D01*
X137097227Y-127721150D01*
X137392709Y-127278930D01*
X137596240Y-126787561D01*
X137700000Y-126265927D01*
X137700000Y-125734073D01*
X137596240Y-125212439D01*
X137392709Y-124721070D01*
X137097227Y-124278850D01*
X136721150Y-123902773D01*
X136278930Y-123607291D01*
X135787561Y-123403760D01*
X135265927Y-123300000D01*
X134734073Y-123300000D01*
X134212439Y-123403760D01*
X133721070Y-123607291D01*
X133278850Y-123902773D01*
X132902773Y-124278850D01*
X132607291Y-124721070D01*
X132403760Y-125212439D01*
X132300000Y-125734073D01*
X112879241Y-125734073D01*
X112930498Y-125657362D01*
X113009650Y-125466274D01*
X113050000Y-125263416D01*
X113050000Y-125056584D01*
X113009650Y-124853726D01*
X112930498Y-124662638D01*
X112815589Y-124490664D01*
X112669336Y-124344411D01*
X112497362Y-124229502D01*
X112306274Y-124150350D01*
X112103416Y-124110000D01*
X111896584Y-124110000D01*
X111693726Y-124150350D01*
X111502638Y-124229502D01*
X111330664Y-124344411D01*
X111184411Y-124490664D01*
X111069502Y-124662638D01*
X110990350Y-124853726D01*
X110950000Y-125056584D01*
X110510000Y-125056584D01*
X110469650Y-124853726D01*
X110390498Y-124662638D01*
X110275589Y-124490664D01*
X110129336Y-124344411D01*
X109957362Y-124229502D01*
X109766274Y-124150350D01*
X109563416Y-124110000D01*
X109356584Y-124110000D01*
X109153726Y-124150350D01*
X108962638Y-124229502D01*
X108790664Y-124344411D01*
X108644411Y-124490664D01*
X108529502Y-124662638D01*
X108450350Y-124853726D01*
X108410000Y-125056584D01*
X107550000Y-125056584D01*
X107550000Y-122516584D01*
X108410000Y-122516584D01*
X108410000Y-122723416D01*
X108450350Y-122926274D01*
X108529502Y-123117362D01*
X108644411Y-123289336D01*
X108790664Y-123435589D01*
X108962638Y-123550498D01*
X109153726Y-123629650D01*
X109356584Y-123670000D01*
X109563416Y-123670000D01*
X109766274Y-123629650D01*
X109957362Y-123550498D01*
X110129336Y-123435589D01*
X110275589Y-123289336D01*
X110390498Y-123117362D01*
X110469650Y-122926274D01*
X110510000Y-122723416D01*
X110510000Y-122516584D01*
X110950000Y-122516584D01*
X110950000Y-122723416D01*
X110990350Y-122926274D01*
X111069502Y-123117362D01*
X111184411Y-123289336D01*
X111330664Y-123435589D01*
X111502638Y-123550498D01*
X111693726Y-123629650D01*
X111896584Y-123670000D01*
X112103416Y-123670000D01*
X112306274Y-123629650D01*
X112497362Y-123550498D01*
X112669336Y-123435589D01*
X112815589Y-123289336D01*
X112930498Y-123117362D01*
X113009650Y-122926274D01*
X113050000Y-122723416D01*
X113050000Y-122516584D01*
X113009650Y-122313726D01*
X112930498Y-122122638D01*
X112815589Y-121950664D01*
X112669336Y-121804411D01*
X112497362Y-121689502D01*
X112306274Y-121610350D01*
X112103416Y-121570000D01*
X111896584Y-121570000D01*
X111693726Y-121610350D01*
X111502638Y-121689502D01*
X111330664Y-121804411D01*
X111184411Y-121950664D01*
X111069502Y-122122638D01*
X110990350Y-122313726D01*
X110950000Y-122516584D01*
X110510000Y-122516584D01*
X110469650Y-122313726D01*
X110390498Y-122122638D01*
X110275589Y-121950664D01*
X110129336Y-121804411D01*
X109957362Y-121689502D01*
X109766274Y-121610350D01*
X109563416Y-121570000D01*
X109356584Y-121570000D01*
X109153726Y-121610350D01*
X108962638Y-121689502D01*
X108790664Y-121804411D01*
X108644411Y-121950664D01*
X108529502Y-122122638D01*
X108450350Y-122313726D01*
X108410000Y-122516584D01*
X107550000Y-122516584D01*
X107550000Y-119976584D01*
X108410000Y-119976584D01*
X108410000Y-120183416D01*
X108450350Y-120386274D01*
X108529502Y-120577362D01*
X108644411Y-120749336D01*
X108790664Y-120895589D01*
X108962638Y-121010498D01*
X109153726Y-121089650D01*
X109356584Y-121130000D01*
X109563416Y-121130000D01*
X109766274Y-121089650D01*
X109957362Y-121010498D01*
X110129336Y-120895589D01*
X110275589Y-120749336D01*
X110390498Y-120577362D01*
X110469650Y-120386274D01*
X110510000Y-120183416D01*
X110510000Y-119976584D01*
X110950000Y-119976584D01*
X110950000Y-120183416D01*
X110990350Y-120386274D01*
X111069502Y-120577362D01*
X111184411Y-120749336D01*
X111330664Y-120895589D01*
X111502638Y-121010498D01*
X111693726Y-121089650D01*
X111896584Y-121130000D01*
X112103416Y-121130000D01*
X112306274Y-121089650D01*
X112497362Y-121010498D01*
X112669336Y-120895589D01*
X112815589Y-120749336D01*
X112930498Y-120577362D01*
X113009650Y-120386274D01*
X113050000Y-120183416D01*
X113050000Y-119976584D01*
X113009650Y-119773726D01*
X112930498Y-119582638D01*
X112815589Y-119410664D01*
X112669336Y-119264411D01*
X112497362Y-119149502D01*
X112306274Y-119070350D01*
X112103416Y-119030000D01*
X111896584Y-119030000D01*
X111693726Y-119070350D01*
X111502638Y-119149502D01*
X111330664Y-119264411D01*
X111184411Y-119410664D01*
X111069502Y-119582638D01*
X110990350Y-119773726D01*
X110950000Y-119976584D01*
X110510000Y-119976584D01*
X110469650Y-119773726D01*
X110390498Y-119582638D01*
X110275589Y-119410664D01*
X110129336Y-119264411D01*
X109957362Y-119149502D01*
X109766274Y-119070350D01*
X109563416Y-119030000D01*
X109356584Y-119030000D01*
X109153726Y-119070350D01*
X108962638Y-119149502D01*
X108790664Y-119264411D01*
X108644411Y-119410664D01*
X108529502Y-119582638D01*
X108450350Y-119773726D01*
X108410000Y-119976584D01*
X107550000Y-119976584D01*
X107550000Y-117436584D01*
X108410000Y-117436584D01*
X108410000Y-117643416D01*
X108450350Y-117846274D01*
X108529502Y-118037362D01*
X108644411Y-118209336D01*
X108790664Y-118355589D01*
X108962638Y-118470498D01*
X109153726Y-118549650D01*
X109356584Y-118590000D01*
X109563416Y-118590000D01*
X109766274Y-118549650D01*
X109957362Y-118470498D01*
X110129336Y-118355589D01*
X110275589Y-118209336D01*
X110390498Y-118037362D01*
X110469650Y-117846274D01*
X110510000Y-117643416D01*
X110510000Y-117436584D01*
X110950000Y-117436584D01*
X110950000Y-117643416D01*
X110990350Y-117846274D01*
X111069502Y-118037362D01*
X111184411Y-118209336D01*
X111330664Y-118355589D01*
X111502638Y-118470498D01*
X111693726Y-118549650D01*
X111896584Y-118590000D01*
X112103416Y-118590000D01*
X112306274Y-118549650D01*
X112497362Y-118470498D01*
X112669336Y-118355589D01*
X112815589Y-118209336D01*
X112930498Y-118037362D01*
X113009650Y-117846274D01*
X113050000Y-117643416D01*
X113050000Y-117436584D01*
X113009650Y-117233726D01*
X112930498Y-117042638D01*
X112815589Y-116870664D01*
X112669336Y-116724411D01*
X112497362Y-116609502D01*
X112306274Y-116530350D01*
X112103416Y-116490000D01*
X111896584Y-116490000D01*
X111693726Y-116530350D01*
X111502638Y-116609502D01*
X111330664Y-116724411D01*
X111184411Y-116870664D01*
X111069502Y-117042638D01*
X110990350Y-117233726D01*
X110950000Y-117436584D01*
X110510000Y-117436584D01*
X110469650Y-117233726D01*
X110390498Y-117042638D01*
X110275589Y-116870664D01*
X110129336Y-116724411D01*
X109957362Y-116609502D01*
X109766274Y-116530350D01*
X109563416Y-116490000D01*
X109356584Y-116490000D01*
X109153726Y-116530350D01*
X108962638Y-116609502D01*
X108790664Y-116724411D01*
X108644411Y-116870664D01*
X108529502Y-117042638D01*
X108450350Y-117233726D01*
X108410000Y-117436584D01*
X107550000Y-117436584D01*
X107550000Y-114896584D01*
X108410000Y-114896584D01*
X108410000Y-115103416D01*
X108450350Y-115306274D01*
X108529502Y-115497362D01*
X108644411Y-115669336D01*
X108790664Y-115815589D01*
X108962638Y-115930498D01*
X109153726Y-116009650D01*
X109356584Y-116050000D01*
X109563416Y-116050000D01*
X109766274Y-116009650D01*
X109957362Y-115930498D01*
X110129336Y-115815589D01*
X110275589Y-115669336D01*
X110390498Y-115497362D01*
X110469650Y-115306274D01*
X110510000Y-115103416D01*
X110510000Y-114896584D01*
X110950000Y-114896584D01*
X110950000Y-115103416D01*
X110990350Y-115306274D01*
X111069502Y-115497362D01*
X111184411Y-115669336D01*
X111330664Y-115815589D01*
X111502638Y-115930498D01*
X111693726Y-116009650D01*
X111896584Y-116050000D01*
X112103416Y-116050000D01*
X112306274Y-116009650D01*
X112497362Y-115930498D01*
X112669336Y-115815589D01*
X112815589Y-115669336D01*
X112930498Y-115497362D01*
X113009650Y-115306274D01*
X113050000Y-115103416D01*
X113050000Y-114896584D01*
X113009650Y-114693726D01*
X112930498Y-114502638D01*
X112815589Y-114330664D01*
X112693066Y-114208141D01*
X125325000Y-114208141D01*
X125325000Y-114291859D01*
X125341333Y-114373968D01*
X125373370Y-114451313D01*
X125419881Y-114520921D01*
X125479079Y-114580119D01*
X125548687Y-114626630D01*
X125626032Y-114658667D01*
X125708141Y-114675000D01*
X125791859Y-114675000D01*
X125873968Y-114658667D01*
X125951313Y-114626630D01*
X126020921Y-114580119D01*
X126080119Y-114520921D01*
X126126630Y-114451313D01*
X126158667Y-114373968D01*
X126175000Y-114291859D01*
X126175000Y-114208141D01*
X126158667Y-114126032D01*
X126126630Y-114048687D01*
X126080119Y-113979079D01*
X126059181Y-113958141D01*
X133575000Y-113958141D01*
X133575000Y-114041859D01*
X133591333Y-114123968D01*
X133623370Y-114201313D01*
X133669881Y-114270921D01*
X133729079Y-114330119D01*
X133798687Y-114376630D01*
X133876032Y-114408667D01*
X133958141Y-114425000D01*
X134041859Y-114425000D01*
X134123968Y-114408667D01*
X134201313Y-114376630D01*
X134270921Y-114330119D01*
X134330119Y-114270921D01*
X134376630Y-114201313D01*
X134408667Y-114123968D01*
X134425000Y-114041859D01*
X134425000Y-113958141D01*
X134575000Y-113958141D01*
X134575000Y-114041859D01*
X134591333Y-114123968D01*
X134623370Y-114201313D01*
X134669881Y-114270921D01*
X134729079Y-114330119D01*
X134798687Y-114376630D01*
X134876032Y-114408667D01*
X134958141Y-114425000D01*
X135041859Y-114425000D01*
X135123968Y-114408667D01*
X135201313Y-114376630D01*
X135270921Y-114330119D01*
X135330119Y-114270921D01*
X135376630Y-114201313D01*
X135408667Y-114123968D01*
X135425000Y-114041859D01*
X135425000Y-113958141D01*
X135575000Y-113958141D01*
X135575000Y-114041859D01*
X135591333Y-114123968D01*
X135623370Y-114201313D01*
X135669881Y-114270921D01*
X135729079Y-114330119D01*
X135798687Y-114376630D01*
X135876032Y-114408667D01*
X135958141Y-114425000D01*
X136041859Y-114425000D01*
X136123968Y-114408667D01*
X136201313Y-114376630D01*
X136270921Y-114330119D01*
X136330119Y-114270921D01*
X136376630Y-114201313D01*
X136408667Y-114123968D01*
X136425000Y-114041859D01*
X136425000Y-113958141D01*
X136408667Y-113876032D01*
X136376630Y-113798687D01*
X136330119Y-113729079D01*
X136270921Y-113669881D01*
X136201313Y-113623370D01*
X136123968Y-113591333D01*
X136041859Y-113575000D01*
X135958141Y-113575000D01*
X135876032Y-113591333D01*
X135798687Y-113623370D01*
X135729079Y-113669881D01*
X135669881Y-113729079D01*
X135623370Y-113798687D01*
X135591333Y-113876032D01*
X135575000Y-113958141D01*
X135425000Y-113958141D01*
X135408667Y-113876032D01*
X135376630Y-113798687D01*
X135330119Y-113729079D01*
X135270921Y-113669881D01*
X135201313Y-113623370D01*
X135123968Y-113591333D01*
X135041859Y-113575000D01*
X134958141Y-113575000D01*
X134876032Y-113591333D01*
X134798687Y-113623370D01*
X134729079Y-113669881D01*
X134669881Y-113729079D01*
X134623370Y-113798687D01*
X134591333Y-113876032D01*
X134575000Y-113958141D01*
X134425000Y-113958141D01*
X134408667Y-113876032D01*
X134376630Y-113798687D01*
X134330119Y-113729079D01*
X134270921Y-113669881D01*
X134201313Y-113623370D01*
X134123968Y-113591333D01*
X134041859Y-113575000D01*
X133958141Y-113575000D01*
X133876032Y-113591333D01*
X133798687Y-113623370D01*
X133729079Y-113669881D01*
X133669881Y-113729079D01*
X133623370Y-113798687D01*
X133591333Y-113876032D01*
X133575000Y-113958141D01*
X126059181Y-113958141D01*
X126020921Y-113919881D01*
X125951313Y-113873370D01*
X125873968Y-113841333D01*
X125791859Y-113825000D01*
X125708141Y-113825000D01*
X125626032Y-113841333D01*
X125548687Y-113873370D01*
X125479079Y-113919881D01*
X125419881Y-113979079D01*
X125373370Y-114048687D01*
X125341333Y-114126032D01*
X125325000Y-114208141D01*
X112693066Y-114208141D01*
X112669336Y-114184411D01*
X112497362Y-114069502D01*
X112306274Y-113990350D01*
X112103416Y-113950000D01*
X111896584Y-113950000D01*
X111693726Y-113990350D01*
X111502638Y-114069502D01*
X111330664Y-114184411D01*
X111184411Y-114330664D01*
X111069502Y-114502638D01*
X110990350Y-114693726D01*
X110950000Y-114896584D01*
X110510000Y-114896584D01*
X110469650Y-114693726D01*
X110390498Y-114502638D01*
X110275589Y-114330664D01*
X110129336Y-114184411D01*
X109957362Y-114069502D01*
X109766274Y-113990350D01*
X109563416Y-113950000D01*
X109356584Y-113950000D01*
X109153726Y-113990350D01*
X108962638Y-114069502D01*
X108790664Y-114184411D01*
X108644411Y-114330664D01*
X108529502Y-114502638D01*
X108450350Y-114693726D01*
X108410000Y-114896584D01*
X107550000Y-114896584D01*
X107550000Y-112356584D01*
X108410000Y-112356584D01*
X108410000Y-112563416D01*
X108450350Y-112766274D01*
X108529502Y-112957362D01*
X108644411Y-113129336D01*
X108790664Y-113275589D01*
X108962638Y-113390498D01*
X109153726Y-113469650D01*
X109356584Y-113510000D01*
X109563416Y-113510000D01*
X109766274Y-113469650D01*
X109957362Y-113390498D01*
X110129336Y-113275589D01*
X110275589Y-113129336D01*
X110390498Y-112957362D01*
X110469650Y-112766274D01*
X110510000Y-112563416D01*
X110510000Y-112356584D01*
X110950000Y-112356584D01*
X110950000Y-112563416D01*
X110990350Y-112766274D01*
X111069502Y-112957362D01*
X111184411Y-113129336D01*
X111330664Y-113275589D01*
X111502638Y-113390498D01*
X111693726Y-113469650D01*
X111896584Y-113510000D01*
X112103416Y-113510000D01*
X112306274Y-113469650D01*
X112497362Y-113390498D01*
X112669336Y-113275589D01*
X112815589Y-113129336D01*
X112929977Y-112958141D01*
X133575000Y-112958141D01*
X133575000Y-113041859D01*
X133591333Y-113123968D01*
X133623370Y-113201313D01*
X133669881Y-113270921D01*
X133729079Y-113330119D01*
X133798687Y-113376630D01*
X133876032Y-113408667D01*
X133958141Y-113425000D01*
X134041859Y-113425000D01*
X134123968Y-113408667D01*
X134201313Y-113376630D01*
X134270921Y-113330119D01*
X134330119Y-113270921D01*
X134376630Y-113201313D01*
X134408667Y-113123968D01*
X134425000Y-113041859D01*
X134425000Y-112958141D01*
X134575000Y-112958141D01*
X134575000Y-113041859D01*
X134591333Y-113123968D01*
X134623370Y-113201313D01*
X134669881Y-113270921D01*
X134729079Y-113330119D01*
X134798687Y-113376630D01*
X134876032Y-113408667D01*
X134958141Y-113425000D01*
X135041859Y-113425000D01*
X135123968Y-113408667D01*
X135201313Y-113376630D01*
X135270921Y-113330119D01*
X135330119Y-113270921D01*
X135376630Y-113201313D01*
X135408667Y-113123968D01*
X135425000Y-113041859D01*
X135425000Y-112958141D01*
X135575000Y-112958141D01*
X135575000Y-113041859D01*
X135591333Y-113123968D01*
X135623370Y-113201313D01*
X135669881Y-113270921D01*
X135729079Y-113330119D01*
X135798687Y-113376630D01*
X135876032Y-113408667D01*
X135958141Y-113425000D01*
X136041859Y-113425000D01*
X136123968Y-113408667D01*
X136201313Y-113376630D01*
X136270921Y-113330119D01*
X136330119Y-113270921D01*
X136376630Y-113201313D01*
X136408667Y-113123968D01*
X136425000Y-113041859D01*
X136425000Y-112958141D01*
X136408667Y-112876032D01*
X136376630Y-112798687D01*
X136330119Y-112729079D01*
X136270921Y-112669881D01*
X136201313Y-112623370D01*
X136123968Y-112591333D01*
X136041859Y-112575000D01*
X135958141Y-112575000D01*
X135876032Y-112591333D01*
X135798687Y-112623370D01*
X135729079Y-112669881D01*
X135669881Y-112729079D01*
X135623370Y-112798687D01*
X135591333Y-112876032D01*
X135575000Y-112958141D01*
X135425000Y-112958141D01*
X135408667Y-112876032D01*
X135376630Y-112798687D01*
X135330119Y-112729079D01*
X135270921Y-112669881D01*
X135201313Y-112623370D01*
X135123968Y-112591333D01*
X135041859Y-112575000D01*
X134958141Y-112575000D01*
X134876032Y-112591333D01*
X134798687Y-112623370D01*
X134729079Y-112669881D01*
X134669881Y-112729079D01*
X134623370Y-112798687D01*
X134591333Y-112876032D01*
X134575000Y-112958141D01*
X134425000Y-112958141D01*
X134408667Y-112876032D01*
X134376630Y-112798687D01*
X134330119Y-112729079D01*
X134270921Y-112669881D01*
X134201313Y-112623370D01*
X134123968Y-112591333D01*
X134041859Y-112575000D01*
X133958141Y-112575000D01*
X133876032Y-112591333D01*
X133798687Y-112623370D01*
X133729079Y-112669881D01*
X133669881Y-112729079D01*
X133623370Y-112798687D01*
X133591333Y-112876032D01*
X133575000Y-112958141D01*
X112929977Y-112958141D01*
X112930498Y-112957362D01*
X113009650Y-112766274D01*
X113050000Y-112563416D01*
X113050000Y-112356584D01*
X113009650Y-112153726D01*
X112930498Y-111962638D01*
X112815589Y-111790664D01*
X112669336Y-111644411D01*
X112497362Y-111529502D01*
X112306274Y-111450350D01*
X112103416Y-111410000D01*
X111896584Y-111410000D01*
X111693726Y-111450350D01*
X111502638Y-111529502D01*
X111330664Y-111644411D01*
X111184411Y-111790664D01*
X111069502Y-111962638D01*
X110990350Y-112153726D01*
X110950000Y-112356584D01*
X110510000Y-112356584D01*
X110469650Y-112153726D01*
X110390498Y-111962638D01*
X110275589Y-111790664D01*
X110129336Y-111644411D01*
X109957362Y-111529502D01*
X109766274Y-111450350D01*
X109563416Y-111410000D01*
X109356584Y-111410000D01*
X109153726Y-111450350D01*
X108962638Y-111529502D01*
X108790664Y-111644411D01*
X108644411Y-111790664D01*
X108529502Y-111962638D01*
X108450350Y-112153726D01*
X108410000Y-112356584D01*
X107550000Y-112356584D01*
X107550000Y-109816584D01*
X108410000Y-109816584D01*
X108410000Y-110023416D01*
X108450350Y-110226274D01*
X108529502Y-110417362D01*
X108644411Y-110589336D01*
X108790664Y-110735589D01*
X108962638Y-110850498D01*
X109153726Y-110929650D01*
X109356584Y-110970000D01*
X109563416Y-110970000D01*
X109766274Y-110929650D01*
X109957362Y-110850498D01*
X110129336Y-110735589D01*
X110275589Y-110589336D01*
X110390498Y-110417362D01*
X110469650Y-110226274D01*
X110510000Y-110023416D01*
X110510000Y-109816584D01*
X110950000Y-109816584D01*
X110950000Y-110023416D01*
X110990350Y-110226274D01*
X111069502Y-110417362D01*
X111184411Y-110589336D01*
X111330664Y-110735589D01*
X111502638Y-110850498D01*
X111693726Y-110929650D01*
X111896584Y-110970000D01*
X112103416Y-110970000D01*
X112306274Y-110929650D01*
X112497362Y-110850498D01*
X112669336Y-110735589D01*
X112815589Y-110589336D01*
X112930498Y-110417362D01*
X113009650Y-110226274D01*
X113050000Y-110023416D01*
X113050000Y-109816584D01*
X113009650Y-109613726D01*
X112930498Y-109422638D01*
X112815589Y-109250664D01*
X112669336Y-109104411D01*
X112497362Y-108989502D01*
X112306274Y-108910350D01*
X112103416Y-108870000D01*
X111896584Y-108870000D01*
X111693726Y-108910350D01*
X111502638Y-108989502D01*
X111330664Y-109104411D01*
X111184411Y-109250664D01*
X111069502Y-109422638D01*
X110990350Y-109613726D01*
X110950000Y-109816584D01*
X110510000Y-109816584D01*
X110469650Y-109613726D01*
X110390498Y-109422638D01*
X110275589Y-109250664D01*
X110129336Y-109104411D01*
X109957362Y-108989502D01*
X109766274Y-108910350D01*
X109563416Y-108870000D01*
X109356584Y-108870000D01*
X109153726Y-108910350D01*
X108962638Y-108989502D01*
X108790664Y-109104411D01*
X108644411Y-109250664D01*
X108529502Y-109422638D01*
X108450350Y-109613726D01*
X108410000Y-109816584D01*
X107550000Y-109816584D01*
X107550000Y-107276584D01*
X108410000Y-107276584D01*
X108410000Y-107483416D01*
X108450350Y-107686274D01*
X108529502Y-107877362D01*
X108644411Y-108049336D01*
X108790664Y-108195589D01*
X108962638Y-108310498D01*
X109153726Y-108389650D01*
X109356584Y-108430000D01*
X109563416Y-108430000D01*
X109766274Y-108389650D01*
X109957362Y-108310498D01*
X110129336Y-108195589D01*
X110275589Y-108049336D01*
X110390498Y-107877362D01*
X110469650Y-107686274D01*
X110510000Y-107483416D01*
X110510000Y-107276584D01*
X110950000Y-107276584D01*
X110950000Y-107483416D01*
X110990350Y-107686274D01*
X111069502Y-107877362D01*
X111184411Y-108049336D01*
X111330664Y-108195589D01*
X111502638Y-108310498D01*
X111693726Y-108389650D01*
X111896584Y-108430000D01*
X112103416Y-108430000D01*
X112306274Y-108389650D01*
X112497362Y-108310498D01*
X112669336Y-108195589D01*
X112815589Y-108049336D01*
X112930498Y-107877362D01*
X112938459Y-107858141D01*
X132175000Y-107858141D01*
X132175000Y-107941859D01*
X132191333Y-108023968D01*
X132223370Y-108101313D01*
X132269881Y-108170921D01*
X132329079Y-108230119D01*
X132398687Y-108276630D01*
X132476032Y-108308667D01*
X132558141Y-108325000D01*
X132641859Y-108325000D01*
X132723968Y-108308667D01*
X132801313Y-108276630D01*
X132870921Y-108230119D01*
X132900000Y-108201040D01*
X132929079Y-108230119D01*
X132998687Y-108276630D01*
X133076032Y-108308667D01*
X133158141Y-108325000D01*
X133241859Y-108325000D01*
X133323968Y-108308667D01*
X133401313Y-108276630D01*
X133470921Y-108230119D01*
X133530119Y-108170921D01*
X133576630Y-108101313D01*
X133608667Y-108023968D01*
X133625000Y-107941859D01*
X133625000Y-107858141D01*
X133608667Y-107776032D01*
X133576630Y-107698687D01*
X133530119Y-107629079D01*
X133470921Y-107569881D01*
X133401313Y-107523370D01*
X133323968Y-107491333D01*
X133241859Y-107475000D01*
X133158141Y-107475000D01*
X133076032Y-107491333D01*
X132998687Y-107523370D01*
X132929079Y-107569881D01*
X132900000Y-107598960D01*
X132870921Y-107569881D01*
X132801313Y-107523370D01*
X132723968Y-107491333D01*
X132641859Y-107475000D01*
X132558141Y-107475000D01*
X132476032Y-107491333D01*
X132398687Y-107523370D01*
X132329079Y-107569881D01*
X132269881Y-107629079D01*
X132223370Y-107698687D01*
X132191333Y-107776032D01*
X132175000Y-107858141D01*
X112938459Y-107858141D01*
X113009650Y-107686274D01*
X113050000Y-107483416D01*
X113050000Y-107276584D01*
X113009650Y-107073726D01*
X112930498Y-106882638D01*
X112815589Y-106710664D01*
X112669336Y-106564411D01*
X112497362Y-106449502D01*
X112306274Y-106370350D01*
X112103416Y-106330000D01*
X111896584Y-106330000D01*
X111693726Y-106370350D01*
X111502638Y-106449502D01*
X111330664Y-106564411D01*
X111184411Y-106710664D01*
X111069502Y-106882638D01*
X110990350Y-107073726D01*
X110950000Y-107276584D01*
X110510000Y-107276584D01*
X110469650Y-107073726D01*
X110390498Y-106882638D01*
X110275589Y-106710664D01*
X110129336Y-106564411D01*
X109957362Y-106449502D01*
X109766274Y-106370350D01*
X109563416Y-106330000D01*
X109356584Y-106330000D01*
X109153726Y-106370350D01*
X108962638Y-106449502D01*
X108790664Y-106564411D01*
X108644411Y-106710664D01*
X108529502Y-106882638D01*
X108450350Y-107073726D01*
X108410000Y-107276584D01*
X107550000Y-107276584D01*
X107550000Y-106138141D01*
X126325000Y-106138141D01*
X126325000Y-106221859D01*
X126341333Y-106303968D01*
X126373370Y-106381313D01*
X126419881Y-106450921D01*
X126479079Y-106510119D01*
X126548687Y-106556630D01*
X126626032Y-106588667D01*
X126708141Y-106605000D01*
X126791859Y-106605000D01*
X126873968Y-106588667D01*
X126951313Y-106556630D01*
X127020921Y-106510119D01*
X127080119Y-106450921D01*
X127126630Y-106381313D01*
X127158667Y-106303968D01*
X127175000Y-106221859D01*
X127175000Y-106138141D01*
X127158667Y-106056032D01*
X127126630Y-105978687D01*
X127080119Y-105909079D01*
X127020921Y-105849881D01*
X126951313Y-105803370D01*
X126873968Y-105771333D01*
X126791859Y-105755000D01*
X126708141Y-105755000D01*
X126626032Y-105771333D01*
X126548687Y-105803370D01*
X126479079Y-105849881D01*
X126419881Y-105909079D01*
X126373370Y-105978687D01*
X126341333Y-106056032D01*
X126325000Y-106138141D01*
X107550000Y-106138141D01*
X107550000Y-104736584D01*
X108410000Y-104736584D01*
X108410000Y-104943416D01*
X108450350Y-105146274D01*
X108529502Y-105337362D01*
X108644411Y-105509336D01*
X108790664Y-105655589D01*
X108962638Y-105770498D01*
X109153726Y-105849650D01*
X109356584Y-105890000D01*
X109563416Y-105890000D01*
X109766274Y-105849650D01*
X109957362Y-105770498D01*
X110129336Y-105655589D01*
X110275589Y-105509336D01*
X110390498Y-105337362D01*
X110469650Y-105146274D01*
X110510000Y-104943416D01*
X110510000Y-104736584D01*
X110950000Y-104736584D01*
X110950000Y-104943416D01*
X110990350Y-105146274D01*
X111069502Y-105337362D01*
X111184411Y-105509336D01*
X111330664Y-105655589D01*
X111502638Y-105770498D01*
X111693726Y-105849650D01*
X111896584Y-105890000D01*
X112103416Y-105890000D01*
X112306274Y-105849650D01*
X112497362Y-105770498D01*
X112669336Y-105655589D01*
X112716784Y-105608141D01*
X120575000Y-105608141D01*
X120575000Y-105691859D01*
X120591333Y-105773968D01*
X120623370Y-105851313D01*
X120669881Y-105920921D01*
X120729079Y-105980119D01*
X120798687Y-106026630D01*
X120876032Y-106058667D01*
X120958141Y-106075000D01*
X121041859Y-106075000D01*
X121123968Y-106058667D01*
X121201313Y-106026630D01*
X121270921Y-105980119D01*
X121330119Y-105920921D01*
X121376630Y-105851313D01*
X121408667Y-105773968D01*
X121425000Y-105691859D01*
X121425000Y-105608141D01*
X121415055Y-105558141D01*
X122475000Y-105558141D01*
X122475000Y-105641859D01*
X122491333Y-105723968D01*
X122523370Y-105801313D01*
X122569881Y-105870921D01*
X122629079Y-105930119D01*
X122698687Y-105976630D01*
X122776032Y-106008667D01*
X122858141Y-106025000D01*
X122941859Y-106025000D01*
X123023968Y-106008667D01*
X123101313Y-105976630D01*
X123170921Y-105930119D01*
X123230119Y-105870921D01*
X123276630Y-105801313D01*
X123308667Y-105723968D01*
X123325000Y-105641859D01*
X123325000Y-105558141D01*
X123725000Y-105558141D01*
X123725000Y-105641859D01*
X123741333Y-105723968D01*
X123773370Y-105801313D01*
X123819881Y-105870921D01*
X123879079Y-105930119D01*
X123948687Y-105976630D01*
X124026032Y-106008667D01*
X124108141Y-106025000D01*
X124191859Y-106025000D01*
X124273968Y-106008667D01*
X124351313Y-105976630D01*
X124420921Y-105930119D01*
X124480119Y-105870921D01*
X124525000Y-105803752D01*
X124569881Y-105870921D01*
X124629079Y-105930119D01*
X124698687Y-105976630D01*
X124776032Y-106008667D01*
X124858141Y-106025000D01*
X124941859Y-106025000D01*
X125023968Y-106008667D01*
X125101313Y-105976630D01*
X125170921Y-105930119D01*
X125230119Y-105870921D01*
X125276630Y-105801313D01*
X125308667Y-105723968D01*
X125325000Y-105641859D01*
X125325000Y-105558141D01*
X125308667Y-105476032D01*
X125276630Y-105398687D01*
X125230119Y-105329079D01*
X125170921Y-105269881D01*
X125101313Y-105223370D01*
X125023968Y-105191333D01*
X124941859Y-105175000D01*
X124858141Y-105175000D01*
X124776032Y-105191333D01*
X124698687Y-105223370D01*
X124629079Y-105269881D01*
X124569881Y-105329079D01*
X124525000Y-105396248D01*
X124480119Y-105329079D01*
X124420921Y-105269881D01*
X124351313Y-105223370D01*
X124273968Y-105191333D01*
X124191859Y-105175000D01*
X124108141Y-105175000D01*
X124026032Y-105191333D01*
X123948687Y-105223370D01*
X123879079Y-105269881D01*
X123819881Y-105329079D01*
X123773370Y-105398687D01*
X123741333Y-105476032D01*
X123725000Y-105558141D01*
X123325000Y-105558141D01*
X123308667Y-105476032D01*
X123276630Y-105398687D01*
X123230119Y-105329079D01*
X123170921Y-105269881D01*
X123101313Y-105223370D01*
X123023968Y-105191333D01*
X122941859Y-105175000D01*
X122858141Y-105175000D01*
X122776032Y-105191333D01*
X122698687Y-105223370D01*
X122629079Y-105269881D01*
X122569881Y-105329079D01*
X122523370Y-105398687D01*
X122491333Y-105476032D01*
X122475000Y-105558141D01*
X121415055Y-105558141D01*
X121408667Y-105526032D01*
X121376630Y-105448687D01*
X121330119Y-105379079D01*
X121270921Y-105319881D01*
X121201313Y-105273370D01*
X121123968Y-105241333D01*
X121041859Y-105225000D01*
X120958141Y-105225000D01*
X120876032Y-105241333D01*
X120798687Y-105273370D01*
X120729079Y-105319881D01*
X120669881Y-105379079D01*
X120623370Y-105448687D01*
X120591333Y-105526032D01*
X120575000Y-105608141D01*
X112716784Y-105608141D01*
X112815589Y-105509336D01*
X112930498Y-105337362D01*
X113009650Y-105146274D01*
X113050000Y-104943416D01*
X113050000Y-104736584D01*
X113009650Y-104533726D01*
X112930498Y-104342638D01*
X112815589Y-104170664D01*
X112669336Y-104024411D01*
X112497362Y-103909502D01*
X112306274Y-103830350D01*
X112103416Y-103790000D01*
X111896584Y-103790000D01*
X111693726Y-103830350D01*
X111502638Y-103909502D01*
X111330664Y-104024411D01*
X111184411Y-104170664D01*
X111069502Y-104342638D01*
X110990350Y-104533726D01*
X110950000Y-104736584D01*
X110510000Y-104736584D01*
X110469650Y-104533726D01*
X110390498Y-104342638D01*
X110275589Y-104170664D01*
X110129336Y-104024411D01*
X109957362Y-103909502D01*
X109766274Y-103830350D01*
X109563416Y-103790000D01*
X109356584Y-103790000D01*
X109153726Y-103830350D01*
X108962638Y-103909502D01*
X108790664Y-104024411D01*
X108644411Y-104170664D01*
X108529502Y-104342638D01*
X108450350Y-104533726D01*
X108410000Y-104736584D01*
X107550000Y-104736584D01*
X107550000Y-103758141D01*
X119075000Y-103758141D01*
X119075000Y-103841859D01*
X119091333Y-103923968D01*
X119123370Y-104001313D01*
X119169881Y-104070921D01*
X119229079Y-104130119D01*
X119298687Y-104176630D01*
X119376032Y-104208667D01*
X119458141Y-104225000D01*
X119541859Y-104225000D01*
X119623968Y-104208667D01*
X119701313Y-104176630D01*
X119770921Y-104130119D01*
X119830119Y-104070921D01*
X119876630Y-104001313D01*
X119908667Y-103923968D01*
X119925000Y-103841859D01*
X119925000Y-103758141D01*
X119908667Y-103676032D01*
X119876630Y-103598687D01*
X119830119Y-103529079D01*
X119770921Y-103469881D01*
X119766167Y-103466705D01*
X119820921Y-103430119D01*
X119880119Y-103370921D01*
X119926630Y-103301313D01*
X119958667Y-103223968D01*
X119975000Y-103141859D01*
X119975000Y-103058141D01*
X119958667Y-102976032D01*
X119926630Y-102898687D01*
X119899538Y-102858141D01*
X127025000Y-102858141D01*
X127025000Y-102941859D01*
X127041333Y-103023968D01*
X127073370Y-103101313D01*
X127119881Y-103170921D01*
X127179079Y-103230119D01*
X127248687Y-103276630D01*
X127326032Y-103308667D01*
X127408141Y-103325000D01*
X127491859Y-103325000D01*
X127573968Y-103308667D01*
X127651313Y-103276630D01*
X127720921Y-103230119D01*
X127780119Y-103170921D01*
X127826630Y-103101313D01*
X127858667Y-103023968D01*
X127875000Y-102941859D01*
X127875000Y-102858141D01*
X127858667Y-102776032D01*
X127826630Y-102698687D01*
X127780119Y-102629079D01*
X127720921Y-102569881D01*
X127651313Y-102523370D01*
X127573968Y-102491333D01*
X127491859Y-102475000D01*
X127408141Y-102475000D01*
X127326032Y-102491333D01*
X127248687Y-102523370D01*
X127179079Y-102569881D01*
X127119881Y-102629079D01*
X127073370Y-102698687D01*
X127041333Y-102776032D01*
X127025000Y-102858141D01*
X119899538Y-102858141D01*
X119880119Y-102829079D01*
X119820921Y-102769881D01*
X119751313Y-102723370D01*
X119673968Y-102691333D01*
X119591859Y-102675000D01*
X119508141Y-102675000D01*
X119426032Y-102691333D01*
X119348687Y-102723370D01*
X119279079Y-102769881D01*
X119219881Y-102829079D01*
X119173370Y-102898687D01*
X119141333Y-102976032D01*
X119125000Y-103058141D01*
X119125000Y-103141859D01*
X119141333Y-103223968D01*
X119173370Y-103301313D01*
X119219881Y-103370921D01*
X119279079Y-103430119D01*
X119283833Y-103433295D01*
X119229079Y-103469881D01*
X119169881Y-103529079D01*
X119123370Y-103598687D01*
X119091333Y-103676032D01*
X119075000Y-103758141D01*
X107550000Y-103758141D01*
X107550000Y-102196584D01*
X108410000Y-102196584D01*
X108410000Y-102403416D01*
X108450350Y-102606274D01*
X108529502Y-102797362D01*
X108644411Y-102969336D01*
X108790664Y-103115589D01*
X108962638Y-103230498D01*
X109153726Y-103309650D01*
X109356584Y-103350000D01*
X109563416Y-103350000D01*
X109766274Y-103309650D01*
X109957362Y-103230498D01*
X110129336Y-103115589D01*
X110275589Y-102969336D01*
X110390498Y-102797362D01*
X110469650Y-102606274D01*
X110510000Y-102403416D01*
X110510000Y-102196584D01*
X110950000Y-102196584D01*
X110950000Y-102403416D01*
X110990350Y-102606274D01*
X111069502Y-102797362D01*
X111184411Y-102969336D01*
X111330664Y-103115589D01*
X111502638Y-103230498D01*
X111693726Y-103309650D01*
X111896584Y-103350000D01*
X112103416Y-103350000D01*
X112306274Y-103309650D01*
X112497362Y-103230498D01*
X112669336Y-103115589D01*
X112815589Y-102969336D01*
X112930498Y-102797362D01*
X113009650Y-102606274D01*
X113050000Y-102403416D01*
X113050000Y-102196584D01*
X113009650Y-101993726D01*
X112930498Y-101802638D01*
X112815589Y-101630664D01*
X112669336Y-101484411D01*
X112497362Y-101369502D01*
X112306274Y-101290350D01*
X112103416Y-101250000D01*
X111896584Y-101250000D01*
X111693726Y-101290350D01*
X111502638Y-101369502D01*
X111330664Y-101484411D01*
X111184411Y-101630664D01*
X111069502Y-101802638D01*
X110990350Y-101993726D01*
X110950000Y-102196584D01*
X110510000Y-102196584D01*
X110469650Y-101993726D01*
X110390498Y-101802638D01*
X110275589Y-101630664D01*
X110129336Y-101484411D01*
X109957362Y-101369502D01*
X109766274Y-101290350D01*
X109563416Y-101250000D01*
X109356584Y-101250000D01*
X109153726Y-101290350D01*
X108962638Y-101369502D01*
X108790664Y-101484411D01*
X108644411Y-101630664D01*
X108529502Y-101802638D01*
X108450350Y-101993726D01*
X108410000Y-102196584D01*
X107550000Y-102196584D01*
X107550000Y-99656584D01*
X108410000Y-99656584D01*
X108410000Y-99863416D01*
X108450350Y-100066274D01*
X108529502Y-100257362D01*
X108644411Y-100429336D01*
X108790664Y-100575589D01*
X108962638Y-100690498D01*
X109153726Y-100769650D01*
X109356584Y-100810000D01*
X109563416Y-100810000D01*
X109766274Y-100769650D01*
X109957362Y-100690498D01*
X110129336Y-100575589D01*
X110275589Y-100429336D01*
X110390498Y-100257362D01*
X110469650Y-100066274D01*
X110510000Y-99863416D01*
X110510000Y-99656584D01*
X110950000Y-99656584D01*
X110950000Y-99863416D01*
X110990350Y-100066274D01*
X111069502Y-100257362D01*
X111184411Y-100429336D01*
X111330664Y-100575589D01*
X111502638Y-100690498D01*
X111693726Y-100769650D01*
X111896584Y-100810000D01*
X112103416Y-100810000D01*
X112306274Y-100769650D01*
X112497362Y-100690498D01*
X112545787Y-100658141D01*
X120525000Y-100658141D01*
X120525000Y-100741859D01*
X120541333Y-100823968D01*
X120573370Y-100901313D01*
X120619881Y-100970921D01*
X120679079Y-101030119D01*
X120748687Y-101076630D01*
X120826032Y-101108667D01*
X120908141Y-101125000D01*
X120991859Y-101125000D01*
X121073968Y-101108667D01*
X121151313Y-101076630D01*
X121220921Y-101030119D01*
X121280119Y-100970921D01*
X121326630Y-100901313D01*
X121358667Y-100823968D01*
X121375000Y-100741859D01*
X121375000Y-100658141D01*
X121358667Y-100576032D01*
X121351257Y-100558141D01*
X123725000Y-100558141D01*
X123725000Y-100641859D01*
X123741333Y-100723968D01*
X123773370Y-100801313D01*
X123819881Y-100870921D01*
X123879079Y-100930119D01*
X123948687Y-100976630D01*
X124026032Y-101008667D01*
X124108141Y-101025000D01*
X124191859Y-101025000D01*
X124273968Y-101008667D01*
X124351313Y-100976630D01*
X124420921Y-100930119D01*
X124480119Y-100870921D01*
X124526630Y-100801313D01*
X124558667Y-100723968D01*
X124575000Y-100641859D01*
X124575000Y-100558141D01*
X125575000Y-100558141D01*
X125575000Y-100641859D01*
X125591333Y-100723968D01*
X125623370Y-100801313D01*
X125669881Y-100870921D01*
X125729079Y-100930119D01*
X125798687Y-100976630D01*
X125876032Y-101008667D01*
X125958141Y-101025000D01*
X126041859Y-101025000D01*
X126123968Y-101008667D01*
X126201313Y-100976630D01*
X126270921Y-100930119D01*
X126330119Y-100870921D01*
X126376630Y-100801313D01*
X126408667Y-100723968D01*
X126425000Y-100641859D01*
X126425000Y-100558141D01*
X126408667Y-100476032D01*
X126376630Y-100398687D01*
X126330119Y-100329079D01*
X126270921Y-100269881D01*
X126201313Y-100223370D01*
X126123968Y-100191333D01*
X126041859Y-100175000D01*
X125958141Y-100175000D01*
X125876032Y-100191333D01*
X125798687Y-100223370D01*
X125729079Y-100269881D01*
X125669881Y-100329079D01*
X125623370Y-100398687D01*
X125591333Y-100476032D01*
X125575000Y-100558141D01*
X124575000Y-100558141D01*
X124558667Y-100476032D01*
X124526630Y-100398687D01*
X124480119Y-100329079D01*
X124420921Y-100269881D01*
X124351313Y-100223370D01*
X124273968Y-100191333D01*
X124191859Y-100175000D01*
X124108141Y-100175000D01*
X124026032Y-100191333D01*
X123948687Y-100223370D01*
X123879079Y-100269881D01*
X123819881Y-100329079D01*
X123773370Y-100398687D01*
X123741333Y-100476032D01*
X123725000Y-100558141D01*
X121351257Y-100558141D01*
X121326630Y-100498687D01*
X121280119Y-100429079D01*
X121220921Y-100369881D01*
X121151313Y-100323370D01*
X121073968Y-100291333D01*
X120991859Y-100275000D01*
X120908141Y-100275000D01*
X120826032Y-100291333D01*
X120748687Y-100323370D01*
X120679079Y-100369881D01*
X120619881Y-100429079D01*
X120573370Y-100498687D01*
X120541333Y-100576032D01*
X120525000Y-100658141D01*
X112545787Y-100658141D01*
X112669336Y-100575589D01*
X112815589Y-100429336D01*
X112930498Y-100257362D01*
X113009650Y-100066274D01*
X113050000Y-99863416D01*
X113050000Y-99656584D01*
X113009650Y-99453726D01*
X112930498Y-99262638D01*
X112827267Y-99108141D01*
X122225000Y-99108141D01*
X122225000Y-99191859D01*
X122241333Y-99273968D01*
X122273370Y-99351313D01*
X122319881Y-99420921D01*
X122379079Y-99480119D01*
X122448687Y-99526630D01*
X122526032Y-99558667D01*
X122608141Y-99575000D01*
X122691859Y-99575000D01*
X122773968Y-99558667D01*
X122851313Y-99526630D01*
X122920921Y-99480119D01*
X122980119Y-99420921D01*
X123026630Y-99351313D01*
X123058667Y-99273968D01*
X123075000Y-99191859D01*
X123075000Y-99108141D01*
X123058667Y-99026032D01*
X123034689Y-98968141D01*
X125275000Y-98968141D01*
X125275000Y-99051859D01*
X125291333Y-99133968D01*
X125323370Y-99211313D01*
X125369881Y-99280921D01*
X125429079Y-99340119D01*
X125498687Y-99386630D01*
X125576032Y-99418667D01*
X125658141Y-99435000D01*
X125741859Y-99435000D01*
X125823968Y-99418667D01*
X125901313Y-99386630D01*
X125970921Y-99340119D01*
X126030119Y-99280921D01*
X126064390Y-99229632D01*
X126073370Y-99251313D01*
X126119881Y-99320921D01*
X126179079Y-99380119D01*
X126248687Y-99426630D01*
X126326032Y-99458667D01*
X126408141Y-99475000D01*
X126491859Y-99475000D01*
X126573968Y-99458667D01*
X126651313Y-99426630D01*
X126720921Y-99380119D01*
X126780119Y-99320921D01*
X126826630Y-99251313D01*
X126858667Y-99173968D01*
X126875000Y-99091859D01*
X126875000Y-99008141D01*
X126858667Y-98926032D01*
X126826630Y-98848687D01*
X126780119Y-98779079D01*
X126720921Y-98719881D01*
X126651313Y-98673370D01*
X126573968Y-98641333D01*
X126491859Y-98625000D01*
X126408141Y-98625000D01*
X126326032Y-98641333D01*
X126248687Y-98673370D01*
X126179079Y-98719881D01*
X126119881Y-98779079D01*
X126085610Y-98830368D01*
X126076630Y-98808687D01*
X126030119Y-98739079D01*
X125970921Y-98679881D01*
X125901313Y-98633370D01*
X125823968Y-98601333D01*
X125741859Y-98585000D01*
X125658141Y-98585000D01*
X125576032Y-98601333D01*
X125498687Y-98633370D01*
X125429079Y-98679881D01*
X125369881Y-98739079D01*
X125323370Y-98808687D01*
X125291333Y-98886032D01*
X125275000Y-98968141D01*
X123034689Y-98968141D01*
X123026630Y-98948687D01*
X122980119Y-98879079D01*
X122920921Y-98819881D01*
X122851313Y-98773370D01*
X122773968Y-98741333D01*
X122691859Y-98725000D01*
X122608141Y-98725000D01*
X122526032Y-98741333D01*
X122448687Y-98773370D01*
X122379079Y-98819881D01*
X122319881Y-98879079D01*
X122273370Y-98948687D01*
X122241333Y-99026032D01*
X122225000Y-99108141D01*
X112827267Y-99108141D01*
X112815589Y-99090664D01*
X112669336Y-98944411D01*
X112497362Y-98829502D01*
X112306274Y-98750350D01*
X112103416Y-98710000D01*
X111896584Y-98710000D01*
X111693726Y-98750350D01*
X111502638Y-98829502D01*
X111330664Y-98944411D01*
X111184411Y-99090664D01*
X111069502Y-99262638D01*
X110990350Y-99453726D01*
X110950000Y-99656584D01*
X110510000Y-99656584D01*
X110469650Y-99453726D01*
X110390498Y-99262638D01*
X110275589Y-99090664D01*
X110129336Y-98944411D01*
X109957362Y-98829502D01*
X109766274Y-98750350D01*
X109563416Y-98710000D01*
X109356584Y-98710000D01*
X109153726Y-98750350D01*
X108962638Y-98829502D01*
X108790664Y-98944411D01*
X108644411Y-99090664D01*
X108529502Y-99262638D01*
X108450350Y-99453726D01*
X108410000Y-99656584D01*
X107550000Y-99656584D01*
X107550000Y-97116584D01*
X108410000Y-97116584D01*
X108410000Y-97323416D01*
X108450350Y-97526274D01*
X108529502Y-97717362D01*
X108644411Y-97889336D01*
X108790664Y-98035589D01*
X108962638Y-98150498D01*
X109153726Y-98229650D01*
X109356584Y-98270000D01*
X109563416Y-98270000D01*
X109766274Y-98229650D01*
X109957362Y-98150498D01*
X110129336Y-98035589D01*
X110275589Y-97889336D01*
X110390498Y-97717362D01*
X110469650Y-97526274D01*
X110510000Y-97323416D01*
X110510000Y-97116584D01*
X110950000Y-97116584D01*
X110950000Y-97323416D01*
X110990350Y-97526274D01*
X111069502Y-97717362D01*
X111184411Y-97889336D01*
X111330664Y-98035589D01*
X111502638Y-98150498D01*
X111693726Y-98229650D01*
X111896584Y-98270000D01*
X112103416Y-98270000D01*
X112306274Y-98229650D01*
X112497362Y-98150498D01*
X112669336Y-98035589D01*
X112746784Y-97958141D01*
X133575000Y-97958141D01*
X133575000Y-98041859D01*
X133591333Y-98123968D01*
X133623370Y-98201313D01*
X133669881Y-98270921D01*
X133729079Y-98330119D01*
X133798687Y-98376630D01*
X133876032Y-98408667D01*
X133958141Y-98425000D01*
X134041859Y-98425000D01*
X134123968Y-98408667D01*
X134201313Y-98376630D01*
X134270921Y-98330119D01*
X134330119Y-98270921D01*
X134376630Y-98201313D01*
X134408667Y-98123968D01*
X134425000Y-98041859D01*
X134425000Y-97958141D01*
X134575000Y-97958141D01*
X134575000Y-98041859D01*
X134591333Y-98123968D01*
X134623370Y-98201313D01*
X134669881Y-98270921D01*
X134729079Y-98330119D01*
X134798687Y-98376630D01*
X134876032Y-98408667D01*
X134958141Y-98425000D01*
X135041859Y-98425000D01*
X135123968Y-98408667D01*
X135201313Y-98376630D01*
X135270921Y-98330119D01*
X135330119Y-98270921D01*
X135376630Y-98201313D01*
X135408667Y-98123968D01*
X135425000Y-98041859D01*
X135425000Y-97958141D01*
X135575000Y-97958141D01*
X135575000Y-98041859D01*
X135591333Y-98123968D01*
X135623370Y-98201313D01*
X135669881Y-98270921D01*
X135729079Y-98330119D01*
X135798687Y-98376630D01*
X135876032Y-98408667D01*
X135958141Y-98425000D01*
X136041859Y-98425000D01*
X136123968Y-98408667D01*
X136201313Y-98376630D01*
X136270921Y-98330119D01*
X136330119Y-98270921D01*
X136376630Y-98201313D01*
X136408667Y-98123968D01*
X136425000Y-98041859D01*
X136425000Y-97958141D01*
X136408667Y-97876032D01*
X136376630Y-97798687D01*
X136330119Y-97729079D01*
X136270921Y-97669881D01*
X136201313Y-97623370D01*
X136123968Y-97591333D01*
X136041859Y-97575000D01*
X135958141Y-97575000D01*
X135876032Y-97591333D01*
X135798687Y-97623370D01*
X135729079Y-97669881D01*
X135669881Y-97729079D01*
X135623370Y-97798687D01*
X135591333Y-97876032D01*
X135575000Y-97958141D01*
X135425000Y-97958141D01*
X135408667Y-97876032D01*
X135376630Y-97798687D01*
X135330119Y-97729079D01*
X135270921Y-97669881D01*
X135201313Y-97623370D01*
X135123968Y-97591333D01*
X135041859Y-97575000D01*
X134958141Y-97575000D01*
X134876032Y-97591333D01*
X134798687Y-97623370D01*
X134729079Y-97669881D01*
X134669881Y-97729079D01*
X134623370Y-97798687D01*
X134591333Y-97876032D01*
X134575000Y-97958141D01*
X134425000Y-97958141D01*
X134408667Y-97876032D01*
X134376630Y-97798687D01*
X134330119Y-97729079D01*
X134270921Y-97669881D01*
X134201313Y-97623370D01*
X134123968Y-97591333D01*
X134041859Y-97575000D01*
X133958141Y-97575000D01*
X133876032Y-97591333D01*
X133798687Y-97623370D01*
X133729079Y-97669881D01*
X133669881Y-97729079D01*
X133623370Y-97798687D01*
X133591333Y-97876032D01*
X133575000Y-97958141D01*
X112746784Y-97958141D01*
X112815589Y-97889336D01*
X112930498Y-97717362D01*
X113009650Y-97526274D01*
X113050000Y-97323416D01*
X113050000Y-97116584D01*
X113018485Y-96958141D01*
X133575000Y-96958141D01*
X133575000Y-97041859D01*
X133591333Y-97123968D01*
X133623370Y-97201313D01*
X133669881Y-97270921D01*
X133729079Y-97330119D01*
X133798687Y-97376630D01*
X133876032Y-97408667D01*
X133958141Y-97425000D01*
X134041859Y-97425000D01*
X134123968Y-97408667D01*
X134201313Y-97376630D01*
X134270921Y-97330119D01*
X134330119Y-97270921D01*
X134376630Y-97201313D01*
X134408667Y-97123968D01*
X134425000Y-97041859D01*
X134425000Y-96958141D01*
X134575000Y-96958141D01*
X134575000Y-97041859D01*
X134591333Y-97123968D01*
X134623370Y-97201313D01*
X134669881Y-97270921D01*
X134729079Y-97330119D01*
X134798687Y-97376630D01*
X134876032Y-97408667D01*
X134958141Y-97425000D01*
X135041859Y-97425000D01*
X135123968Y-97408667D01*
X135201313Y-97376630D01*
X135270921Y-97330119D01*
X135330119Y-97270921D01*
X135376630Y-97201313D01*
X135408667Y-97123968D01*
X135425000Y-97041859D01*
X135425000Y-96958141D01*
X135575000Y-96958141D01*
X135575000Y-97041859D01*
X135591333Y-97123968D01*
X135623370Y-97201313D01*
X135669881Y-97270921D01*
X135729079Y-97330119D01*
X135798687Y-97376630D01*
X135876032Y-97408667D01*
X135958141Y-97425000D01*
X136041859Y-97425000D01*
X136123968Y-97408667D01*
X136201313Y-97376630D01*
X136270921Y-97330119D01*
X136330119Y-97270921D01*
X136376630Y-97201313D01*
X136408667Y-97123968D01*
X136425000Y-97041859D01*
X136425000Y-96958141D01*
X136408667Y-96876032D01*
X136376630Y-96798687D01*
X136330119Y-96729079D01*
X136270921Y-96669881D01*
X136201313Y-96623370D01*
X136123968Y-96591333D01*
X136041859Y-96575000D01*
X135958141Y-96575000D01*
X135876032Y-96591333D01*
X135798687Y-96623370D01*
X135729079Y-96669881D01*
X135669881Y-96729079D01*
X135623370Y-96798687D01*
X135591333Y-96876032D01*
X135575000Y-96958141D01*
X135425000Y-96958141D01*
X135408667Y-96876032D01*
X135376630Y-96798687D01*
X135330119Y-96729079D01*
X135270921Y-96669881D01*
X135201313Y-96623370D01*
X135123968Y-96591333D01*
X135041859Y-96575000D01*
X134958141Y-96575000D01*
X134876032Y-96591333D01*
X134798687Y-96623370D01*
X134729079Y-96669881D01*
X134669881Y-96729079D01*
X134623370Y-96798687D01*
X134591333Y-96876032D01*
X134575000Y-96958141D01*
X134425000Y-96958141D01*
X134408667Y-96876032D01*
X134376630Y-96798687D01*
X134330119Y-96729079D01*
X134270921Y-96669881D01*
X134201313Y-96623370D01*
X134123968Y-96591333D01*
X134041859Y-96575000D01*
X133958141Y-96575000D01*
X133876032Y-96591333D01*
X133798687Y-96623370D01*
X133729079Y-96669881D01*
X133669881Y-96729079D01*
X133623370Y-96798687D01*
X133591333Y-96876032D01*
X133575000Y-96958141D01*
X113018485Y-96958141D01*
X113009650Y-96913726D01*
X112930498Y-96722638D01*
X112815589Y-96550664D01*
X112669336Y-96404411D01*
X112497362Y-96289502D01*
X112306274Y-96210350D01*
X112103416Y-96170000D01*
X111896584Y-96170000D01*
X111693726Y-96210350D01*
X111502638Y-96289502D01*
X111330664Y-96404411D01*
X111184411Y-96550664D01*
X111069502Y-96722638D01*
X110990350Y-96913726D01*
X110950000Y-97116584D01*
X110510000Y-97116584D01*
X110469650Y-96913726D01*
X110390498Y-96722638D01*
X110275589Y-96550664D01*
X110129336Y-96404411D01*
X109957362Y-96289502D01*
X109766274Y-96210350D01*
X109563416Y-96170000D01*
X109356584Y-96170000D01*
X109153726Y-96210350D01*
X108962638Y-96289502D01*
X108790664Y-96404411D01*
X108644411Y-96550664D01*
X108529502Y-96722638D01*
X108450350Y-96913726D01*
X108410000Y-97116584D01*
X107550000Y-97116584D01*
X107550000Y-94576584D01*
X108410000Y-94576584D01*
X108410000Y-94783416D01*
X108450350Y-94986274D01*
X108529502Y-95177362D01*
X108644411Y-95349336D01*
X108790664Y-95495589D01*
X108962638Y-95610498D01*
X109153726Y-95689650D01*
X109356584Y-95730000D01*
X109563416Y-95730000D01*
X109766274Y-95689650D01*
X109957362Y-95610498D01*
X110129336Y-95495589D01*
X110275589Y-95349336D01*
X110390498Y-95177362D01*
X110469650Y-94986274D01*
X110510000Y-94783416D01*
X110510000Y-94576584D01*
X110950000Y-94576584D01*
X110950000Y-94783416D01*
X110990350Y-94986274D01*
X111069502Y-95177362D01*
X111184411Y-95349336D01*
X111330664Y-95495589D01*
X111502638Y-95610498D01*
X111693726Y-95689650D01*
X111896584Y-95730000D01*
X112103416Y-95730000D01*
X112306274Y-95689650D01*
X112497362Y-95610498D01*
X112669336Y-95495589D01*
X112815589Y-95349336D01*
X112930498Y-95177362D01*
X113009650Y-94986274D01*
X113050000Y-94783416D01*
X113050000Y-94576584D01*
X113009650Y-94373726D01*
X112930498Y-94182638D01*
X112815589Y-94010664D01*
X112669336Y-93864411D01*
X112497362Y-93749502D01*
X112306274Y-93670350D01*
X112103416Y-93630000D01*
X111896584Y-93630000D01*
X111693726Y-93670350D01*
X111502638Y-93749502D01*
X111330664Y-93864411D01*
X111184411Y-94010664D01*
X111069502Y-94182638D01*
X110990350Y-94373726D01*
X110950000Y-94576584D01*
X110510000Y-94576584D01*
X110469650Y-94373726D01*
X110390498Y-94182638D01*
X110275589Y-94010664D01*
X110129336Y-93864411D01*
X109957362Y-93749502D01*
X109766274Y-93670350D01*
X109563416Y-93630000D01*
X109356584Y-93630000D01*
X109153726Y-93670350D01*
X108962638Y-93749502D01*
X108790664Y-93864411D01*
X108644411Y-94010664D01*
X108529502Y-94182638D01*
X108450350Y-94373726D01*
X108410000Y-94576584D01*
X107550000Y-94576584D01*
X107550000Y-92036584D01*
X108410000Y-92036584D01*
X108410000Y-92243416D01*
X108450350Y-92446274D01*
X108529502Y-92637362D01*
X108644411Y-92809336D01*
X108790664Y-92955589D01*
X108962638Y-93070498D01*
X109153726Y-93149650D01*
X109356584Y-93190000D01*
X109563416Y-93190000D01*
X109766274Y-93149650D01*
X109957362Y-93070498D01*
X110129336Y-92955589D01*
X110275589Y-92809336D01*
X110390498Y-92637362D01*
X110469650Y-92446274D01*
X110510000Y-92243416D01*
X110510000Y-92036584D01*
X110950000Y-92036584D01*
X110950000Y-92243416D01*
X110990350Y-92446274D01*
X111069502Y-92637362D01*
X111184411Y-92809336D01*
X111330664Y-92955589D01*
X111502638Y-93070498D01*
X111693726Y-93149650D01*
X111896584Y-93190000D01*
X112103416Y-93190000D01*
X112306274Y-93149650D01*
X112497362Y-93070498D01*
X112669336Y-92955589D01*
X112815589Y-92809336D01*
X112930498Y-92637362D01*
X113009650Y-92446274D01*
X113050000Y-92243416D01*
X113050000Y-92036584D01*
X113009650Y-91833726D01*
X112930498Y-91642638D01*
X112815589Y-91470664D01*
X112669336Y-91324411D01*
X112497362Y-91209502D01*
X112306274Y-91130350D01*
X112103416Y-91090000D01*
X111896584Y-91090000D01*
X111693726Y-91130350D01*
X111502638Y-91209502D01*
X111330664Y-91324411D01*
X111184411Y-91470664D01*
X111069502Y-91642638D01*
X110990350Y-91833726D01*
X110950000Y-92036584D01*
X110510000Y-92036584D01*
X110469650Y-91833726D01*
X110390498Y-91642638D01*
X110275589Y-91470664D01*
X110129336Y-91324411D01*
X109957362Y-91209502D01*
X109766274Y-91130350D01*
X109563416Y-91090000D01*
X109356584Y-91090000D01*
X109153726Y-91130350D01*
X108962638Y-91209502D01*
X108790664Y-91324411D01*
X108644411Y-91470664D01*
X108529502Y-91642638D01*
X108450350Y-91833726D01*
X108410000Y-92036584D01*
X107550000Y-92036584D01*
X107550000Y-89496584D01*
X108410000Y-89496584D01*
X108410000Y-89703416D01*
X108450350Y-89906274D01*
X108529502Y-90097362D01*
X108644411Y-90269336D01*
X108790664Y-90415589D01*
X108962638Y-90530498D01*
X109153726Y-90609650D01*
X109356584Y-90650000D01*
X109563416Y-90650000D01*
X109766274Y-90609650D01*
X109957362Y-90530498D01*
X110129336Y-90415589D01*
X110275589Y-90269336D01*
X110390498Y-90097362D01*
X110469650Y-89906274D01*
X110510000Y-89703416D01*
X110510000Y-89496584D01*
X110950000Y-89496584D01*
X110950000Y-89703416D01*
X110990350Y-89906274D01*
X111069502Y-90097362D01*
X111184411Y-90269336D01*
X111330664Y-90415589D01*
X111502638Y-90530498D01*
X111693726Y-90609650D01*
X111896584Y-90650000D01*
X112103416Y-90650000D01*
X112306274Y-90609650D01*
X112497362Y-90530498D01*
X112669336Y-90415589D01*
X112815589Y-90269336D01*
X112930498Y-90097362D01*
X113009650Y-89906274D01*
X113050000Y-89703416D01*
X113050000Y-89496584D01*
X113009650Y-89293726D01*
X112930498Y-89102638D01*
X112815589Y-88930664D01*
X112669336Y-88784411D01*
X112497362Y-88669502D01*
X112306274Y-88590350D01*
X112103416Y-88550000D01*
X111896584Y-88550000D01*
X111693726Y-88590350D01*
X111502638Y-88669502D01*
X111330664Y-88784411D01*
X111184411Y-88930664D01*
X111069502Y-89102638D01*
X110990350Y-89293726D01*
X110950000Y-89496584D01*
X110510000Y-89496584D01*
X110469650Y-89293726D01*
X110390498Y-89102638D01*
X110275589Y-88930664D01*
X110129336Y-88784411D01*
X109957362Y-88669502D01*
X109766274Y-88590350D01*
X109563416Y-88550000D01*
X109356584Y-88550000D01*
X109153726Y-88590350D01*
X108962638Y-88669502D01*
X108790664Y-88784411D01*
X108644411Y-88930664D01*
X108529502Y-89102638D01*
X108450350Y-89293726D01*
X108410000Y-89496584D01*
X107550000Y-89496584D01*
X107550000Y-86956584D01*
X108410000Y-86956584D01*
X108410000Y-87163416D01*
X108450350Y-87366274D01*
X108529502Y-87557362D01*
X108644411Y-87729336D01*
X108790664Y-87875589D01*
X108962638Y-87990498D01*
X109153726Y-88069650D01*
X109356584Y-88110000D01*
X109563416Y-88110000D01*
X109766274Y-88069650D01*
X109957362Y-87990498D01*
X110129336Y-87875589D01*
X110275589Y-87729336D01*
X110390498Y-87557362D01*
X110469650Y-87366274D01*
X110510000Y-87163416D01*
X110510000Y-86956584D01*
X110950000Y-86956584D01*
X110950000Y-87163416D01*
X110990350Y-87366274D01*
X111069502Y-87557362D01*
X111184411Y-87729336D01*
X111330664Y-87875589D01*
X111502638Y-87990498D01*
X111693726Y-88069650D01*
X111896584Y-88110000D01*
X112103416Y-88110000D01*
X112306274Y-88069650D01*
X112497362Y-87990498D01*
X112669336Y-87875589D01*
X112815589Y-87729336D01*
X112930498Y-87557362D01*
X113009650Y-87366274D01*
X113050000Y-87163416D01*
X113050000Y-86956584D01*
X113009650Y-86753726D01*
X112930498Y-86562638D01*
X112815589Y-86390664D01*
X112669336Y-86244411D01*
X112497362Y-86129502D01*
X112306274Y-86050350D01*
X112103416Y-86010000D01*
X111896584Y-86010000D01*
X111693726Y-86050350D01*
X111502638Y-86129502D01*
X111330664Y-86244411D01*
X111184411Y-86390664D01*
X111069502Y-86562638D01*
X110990350Y-86753726D01*
X110950000Y-86956584D01*
X110510000Y-86956584D01*
X110469650Y-86753726D01*
X110390498Y-86562638D01*
X110275589Y-86390664D01*
X110129336Y-86244411D01*
X109957362Y-86129502D01*
X109766274Y-86050350D01*
X109563416Y-86010000D01*
X109356584Y-86010000D01*
X109153726Y-86050350D01*
X108962638Y-86129502D01*
X108790664Y-86244411D01*
X108644411Y-86390664D01*
X108529502Y-86562638D01*
X108450350Y-86753726D01*
X108410000Y-86956584D01*
X107550000Y-86956584D01*
X107550000Y-84416584D01*
X108410000Y-84416584D01*
X108410000Y-84623416D01*
X108450350Y-84826274D01*
X108529502Y-85017362D01*
X108644411Y-85189336D01*
X108790664Y-85335589D01*
X108962638Y-85450498D01*
X109153726Y-85529650D01*
X109356584Y-85570000D01*
X109563416Y-85570000D01*
X109766274Y-85529650D01*
X109957362Y-85450498D01*
X110129336Y-85335589D01*
X110275589Y-85189336D01*
X110390498Y-85017362D01*
X110469650Y-84826274D01*
X110510000Y-84623416D01*
X110510000Y-84416584D01*
X110950000Y-84416584D01*
X110950000Y-84623416D01*
X110990350Y-84826274D01*
X111069502Y-85017362D01*
X111184411Y-85189336D01*
X111330664Y-85335589D01*
X111502638Y-85450498D01*
X111693726Y-85529650D01*
X111896584Y-85570000D01*
X112103416Y-85570000D01*
X112306274Y-85529650D01*
X112497362Y-85450498D01*
X112669336Y-85335589D01*
X112815589Y-85189336D01*
X112930498Y-85017362D01*
X113009650Y-84826274D01*
X113050000Y-84623416D01*
X113050000Y-84416584D01*
X113009650Y-84213726D01*
X112930498Y-84022638D01*
X112815589Y-83850664D01*
X112669336Y-83704411D01*
X112497362Y-83589502D01*
X112306274Y-83510350D01*
X112103416Y-83470000D01*
X111896584Y-83470000D01*
X111693726Y-83510350D01*
X111502638Y-83589502D01*
X111330664Y-83704411D01*
X111184411Y-83850664D01*
X111069502Y-84022638D01*
X110990350Y-84213726D01*
X110950000Y-84416584D01*
X110510000Y-84416584D01*
X110469650Y-84213726D01*
X110390498Y-84022638D01*
X110275589Y-83850664D01*
X110129336Y-83704411D01*
X109957362Y-83589502D01*
X109766274Y-83510350D01*
X109563416Y-83470000D01*
X109356584Y-83470000D01*
X109153726Y-83510350D01*
X108962638Y-83589502D01*
X108790664Y-83704411D01*
X108644411Y-83850664D01*
X108529502Y-84022638D01*
X108450350Y-84213726D01*
X108410000Y-84416584D01*
X107550000Y-84416584D01*
X107550000Y-80734073D01*
X132300000Y-80734073D01*
X132300000Y-81265927D01*
X132403760Y-81787561D01*
X132607291Y-82278930D01*
X132902773Y-82721150D01*
X133278850Y-83097227D01*
X133721070Y-83392709D01*
X134212439Y-83596240D01*
X134734073Y-83700000D01*
X135265927Y-83700000D01*
X135787561Y-83596240D01*
X136278930Y-83392709D01*
X136721150Y-83097227D01*
X137097227Y-82721150D01*
X137392709Y-82278930D01*
X137596240Y-81787561D01*
X137700000Y-81265927D01*
X137700000Y-80734073D01*
X137596240Y-80212439D01*
X137392709Y-79721070D01*
X137097227Y-79278850D01*
X136721150Y-78902773D01*
X136278930Y-78607291D01*
X135787561Y-78403760D01*
X135265927Y-78300000D01*
X134734073Y-78300000D01*
X134212439Y-78403760D01*
X133721070Y-78607291D01*
X133278850Y-78902773D01*
X132902773Y-79278850D01*
X132607291Y-79721070D01*
X132403760Y-80212439D01*
X132300000Y-80734073D01*
X107550000Y-80734073D01*
X107550000Y-79336584D01*
X108410000Y-79336584D01*
X108410000Y-79543416D01*
X108450350Y-79746274D01*
X108529502Y-79937362D01*
X108644411Y-80109336D01*
X108790664Y-80255589D01*
X108962638Y-80370498D01*
X109153726Y-80449650D01*
X109356584Y-80490000D01*
X109563416Y-80490000D01*
X109766274Y-80449650D01*
X109957362Y-80370498D01*
X110129336Y-80255589D01*
X110275589Y-80109336D01*
X110390498Y-79937362D01*
X110469650Y-79746274D01*
X110510000Y-79543416D01*
X110510000Y-79336584D01*
X110950000Y-79336584D01*
X110950000Y-79543416D01*
X110990350Y-79746274D01*
X111069502Y-79937362D01*
X111184411Y-80109336D01*
X111330664Y-80255589D01*
X111502638Y-80370498D01*
X111693726Y-80449650D01*
X111896584Y-80490000D01*
X112103416Y-80490000D01*
X112306274Y-80449650D01*
X112497362Y-80370498D01*
X112669336Y-80255589D01*
X112815589Y-80109336D01*
X112930498Y-79937362D01*
X113009650Y-79746274D01*
X113050000Y-79543416D01*
X113050000Y-79336584D01*
X113009650Y-79133726D01*
X112930498Y-78942638D01*
X112815589Y-78770664D01*
X112669336Y-78624411D01*
X112497362Y-78509502D01*
X112306274Y-78430350D01*
X112103416Y-78390000D01*
X111896584Y-78390000D01*
X111693726Y-78430350D01*
X111502638Y-78509502D01*
X111330664Y-78624411D01*
X111184411Y-78770664D01*
X111069502Y-78942638D01*
X110990350Y-79133726D01*
X110950000Y-79336584D01*
X110510000Y-79336584D01*
X110469650Y-79133726D01*
X110390498Y-78942638D01*
X110275589Y-78770664D01*
X110129336Y-78624411D01*
X109957362Y-78509502D01*
X109766274Y-78430350D01*
X109563416Y-78390000D01*
X109356584Y-78390000D01*
X109153726Y-78430350D01*
X108962638Y-78509502D01*
X108790664Y-78624411D01*
X108644411Y-78770664D01*
X108529502Y-78942638D01*
X108450350Y-79133726D01*
X108410000Y-79336584D01*
X107550000Y-79336584D01*
X107550000Y-77550000D01*
X138450000Y-77550000D01*
X138450000Y-129450000D01*
G37*
G04 #@! TD.AperFunction*
M02*
