M48
; DRILL file {KiCad (5.1.8)-1} date 01/03/21 21:05:24
; FORMAT={-:-/ absolute / metric / decimal}
; #@! TF.CreationDate,2021-01-03T21:05:24+07:00
; #@! TF.GenerationSoftware,Kicad,Pcbnew,(5.1.8)-1
; #@! TF.FileFunction,Plated,1,4,PTH
FMAT,2
METRIC
T1C0.200
T2C1.000
T3C1.500
T4C2.500
%
G90
G05
T1
X115.0Y-79.0
X115.0Y-83.0
X115.0Y-118.0
X115.0Y-120.0
X115.0Y-122.0
X115.0Y-126.0
X115.0Y-128.0
X117.0Y-79.0
X117.0Y-81.0
X117.0Y-85.0
X117.0Y-118.0
X117.0Y-120.0
X117.0Y-124.0
X117.0Y-126.0
X117.0Y-128.0
X119.0Y-79.0
X119.0Y-81.0
X119.0Y-83.0
X119.0Y-87.0
X119.0Y-118.0
X119.0Y-122.0
X119.0Y-124.0
X119.0Y-126.0
X119.0Y-128.0
X119.5Y-103.8
X119.55Y-103.1
X120.95Y-100.7
X121.0Y-79.0
X121.0Y-81.0
X121.0Y-83.0
X121.0Y-85.0
X121.0Y-89.0
X121.0Y-105.65
X121.0Y-120.0
X121.0Y-122.0
X121.0Y-124.0
X121.0Y-126.0
X121.0Y-128.0
X122.65Y-99.15
X122.9Y-105.6
X123.0Y-79.0
X123.0Y-81.0
X123.0Y-83.0
X123.0Y-85.0
X123.0Y-87.0
X123.0Y-118.0
X123.0Y-120.0
X123.0Y-122.0
X123.0Y-124.0
X123.0Y-126.0
X123.0Y-128.0
X124.15Y-100.6
X124.15Y-105.6
X124.9Y-105.6
X124.95Y-99.15
X125.0Y-79.0
X125.0Y-81.0
X125.0Y-83.0
X125.0Y-85.0
X125.0Y-87.0
X125.0Y-89.0
X125.0Y-91.0
X125.0Y-93.0
X125.0Y-116.0
X125.0Y-118.0
X125.0Y-120.0
X125.0Y-122.0
X125.0Y-124.0
X125.0Y-126.0
X125.0Y-128.0
X125.7Y-99.01
X125.71Y-96.81
X125.75Y-114.25
X126.0Y-100.6
X126.45Y-99.05
X126.75Y-106.18
X127.0Y-79.0
X127.0Y-81.0
X127.0Y-83.0
X127.0Y-85.0
X127.0Y-87.0
X127.0Y-89.0
X127.0Y-91.0
X127.0Y-93.0
X127.0Y-95.0
X127.0Y-97.0
X127.0Y-116.0
X127.0Y-118.0
X127.0Y-120.0
X127.0Y-122.0
X127.0Y-124.0
X127.0Y-126.0
X127.0Y-128.0
X127.45Y-99.65
X127.45Y-101.3
X127.45Y-102.9
X128.0Y-105.35
X128.5Y-100.9
X128.6Y-98.95
X128.65Y-102.9
X129.0Y-79.0
X129.0Y-81.0
X129.0Y-83.0
X129.0Y-85.0
X129.0Y-87.0
X129.0Y-89.0
X129.0Y-91.0
X129.0Y-93.0
X129.0Y-95.0
X129.0Y-97.0
X129.0Y-116.0
X129.0Y-118.0
X129.0Y-120.0
X129.0Y-122.0
X129.0Y-124.0
X129.0Y-126.0
X129.0Y-128.0
X129.3Y-104.775
X129.75Y-100.9
X129.85Y-98.95
X129.85Y-111.25
X129.9Y-102.9
X130.85Y-104.775
X131.0Y-79.0
X131.0Y-81.0
X131.0Y-83.0
X131.0Y-85.0
X131.0Y-87.0
X131.0Y-89.0
X131.0Y-91.0
X131.0Y-93.0
X131.0Y-95.0
X131.0Y-116.0
X131.0Y-118.0
X131.0Y-120.0
X131.0Y-122.0
X131.0Y-124.0
X131.0Y-126.0
X131.0Y-128.0
X131.3Y-111.65
X131.4Y-97.0
X131.4Y-98.1
X131.55Y-110.1
X132.0Y-98.95
X132.0Y-102.95
X132.4Y-100.9
X132.45Y-104.775
X132.6Y-107.9
X133.0Y-85.0
X133.0Y-87.0
X133.0Y-89.0
X133.0Y-91.0
X133.0Y-93.0
X133.0Y-95.0
X133.0Y-116.0
X133.0Y-118.0
X133.0Y-120.0
X133.0Y-122.0
X133.2Y-102.95
X133.2Y-107.9
X133.24Y-103.86
X133.25Y-98.95
X133.88Y-106.3
X133.95Y-100.9
X134.0Y-97.0
X134.0Y-98.0
X134.0Y-104.775
X134.0Y-113.0
X134.0Y-114.0
X134.4Y-102.95
X135.0Y-85.0
X135.0Y-87.0
X135.0Y-89.0
X135.0Y-91.0
X135.0Y-93.0
X135.0Y-95.0
X135.0Y-97.0
X135.0Y-98.0
X135.0Y-113.0
X135.0Y-114.0
X135.0Y-116.0
X135.0Y-118.0
X135.0Y-120.0
X135.0Y-122.0
X135.5Y-104.775
X135.9Y-100.9
X136.0Y-97.0
X136.0Y-98.0
X136.0Y-113.0
X136.0Y-114.0
X137.0Y-85.0
X137.0Y-87.0
X137.0Y-89.0
X137.0Y-91.0
X137.0Y-93.0
X137.0Y-95.0
X137.0Y-116.0
X137.0Y-118.0
X137.0Y-120.0
X137.0Y-122.0
T2
X109.46Y-79.44
X109.46Y-81.98
X109.46Y-84.52
X109.46Y-87.06
X109.46Y-89.6
X109.46Y-92.14
X109.46Y-94.68
X109.46Y-97.22
X109.46Y-99.76
X109.46Y-102.3
X109.46Y-104.84
X109.46Y-107.38
X109.46Y-109.92
X109.46Y-112.46
X109.46Y-115.0
X109.46Y-117.54
X109.46Y-120.08
X109.46Y-122.62
X109.46Y-125.16
X109.46Y-127.7
X112.0Y-79.44
X112.0Y-81.98
X112.0Y-84.52
X112.0Y-87.06
X112.0Y-89.6
X112.0Y-92.14
X112.0Y-94.68
X112.0Y-97.22
X112.0Y-99.76
X112.0Y-102.3
X112.0Y-104.84
X112.0Y-107.38
X112.0Y-109.92
X112.0Y-112.46
X112.0Y-115.0
X112.0Y-117.54
X112.0Y-120.08
X112.0Y-122.62
X112.0Y-125.16
X112.0Y-127.7
T3
X123.55Y-103.1
T4
X135.0Y-126.0
X135.0Y-81.0
T0
M30
