G04 #@! TF.GenerationSoftware,KiCad,Pcbnew,(5.1.6)-1*
G04 #@! TF.CreationDate,2021-01-08T16:43:46+07:00*
G04 #@! TF.ProjectId,FT600_Adapter,46543630-305f-4416-9461-707465722e6b,rev?*
G04 #@! TF.SameCoordinates,Original*
G04 #@! TF.FileFunction,Soldermask,Top*
G04 #@! TF.FilePolarity,Negative*
%FSLAX46Y46*%
G04 Gerber Fmt 4.6, Leading zero omitted, Abs format (unit mm)*
G04 Created by KiCad (PCBNEW (5.1.6)-1) date 2021-01-08 16:43:46*
%MOMM*%
%LPD*%
G01*
G04 APERTURE LIST*
%ADD10C,5.000000*%
%ADD11R,4.700000X3.900000*%
%ADD12R,0.500000X0.250000*%
%ADD13R,0.250000X0.500000*%
%ADD14R,1.900000X1.800000*%
%ADD15R,1.900000X1.900000*%
%ADD16R,1.900000X2.300000*%
%ADD17R,1.350000X0.400000*%
%ADD18R,0.400000X0.500000*%
%ADD19R,0.300000X0.500000*%
%ADD20R,0.500000X0.400000*%
%ADD21R,0.500000X0.300000*%
%ADD22O,1.700000X1.700000*%
%ADD23R,1.700000X1.700000*%
%ADD24R,1.400000X1.200000*%
G04 APERTURE END LIST*
D10*
X135000000Y-126000000D03*
X135000000Y-81000000D03*
D11*
X123500000Y-103100000D03*
D12*
X120250000Y-105700000D03*
X120250000Y-105300000D03*
X120250000Y-104900000D03*
X120250000Y-104500000D03*
X120250000Y-104100000D03*
X120250000Y-103700000D03*
X120250000Y-103300000D03*
X120250000Y-102900000D03*
X120250000Y-102500000D03*
X120250000Y-102100000D03*
X120250000Y-101700000D03*
X120250000Y-101300000D03*
X120250000Y-100900000D03*
X120250000Y-100500000D03*
D13*
X120900000Y-99850000D03*
X121300000Y-99850000D03*
X121700000Y-99850000D03*
X122100000Y-99850000D03*
X122500000Y-99850000D03*
X122900000Y-99850000D03*
X123300000Y-99850000D03*
X123700000Y-99850000D03*
X124100000Y-99850000D03*
X124500000Y-99850000D03*
X124900000Y-99850000D03*
X125300000Y-99850000D03*
X125700000Y-99850000D03*
X126100000Y-99850000D03*
D12*
X126750000Y-100500000D03*
X126750000Y-100900000D03*
X126750000Y-101300000D03*
X126750000Y-101700000D03*
X126750000Y-102100000D03*
X126750000Y-102500000D03*
X126750000Y-102900000D03*
X126750000Y-103300000D03*
X126750000Y-103700000D03*
X126750000Y-104100000D03*
X126750000Y-104500000D03*
X126750000Y-104900000D03*
X126750000Y-105300000D03*
X126750000Y-105700000D03*
D13*
X126100000Y-106350000D03*
X125700000Y-106350000D03*
X125300000Y-106350000D03*
X124900000Y-106350000D03*
X124500000Y-106350000D03*
X124100000Y-106350000D03*
X123700000Y-106350000D03*
X123300000Y-106350000D03*
X122900000Y-106350000D03*
X122500000Y-106350000D03*
X122100000Y-106350000D03*
X121700000Y-106350000D03*
X121300000Y-106350000D03*
X120900000Y-106350000D03*
D14*
X137600000Y-111600000D03*
D15*
X137600000Y-108800000D03*
X137600000Y-106400000D03*
D14*
X137600000Y-103600000D03*
D16*
X137600000Y-98500000D03*
D14*
X137600000Y-101100000D03*
D17*
X134925000Y-108250000D03*
X134925000Y-106950000D03*
X134925000Y-106300000D03*
X134925000Y-108900000D03*
X134925000Y-107600000D03*
X134925000Y-102200000D03*
X134925000Y-99600000D03*
X134925000Y-100250000D03*
X134925000Y-101550000D03*
X134925000Y-100900000D03*
G36*
G01*
X127230000Y-114435000D02*
X127230000Y-114065000D01*
G75*
G02*
X127365000Y-113930000I135000J0D01*
G01*
X127635000Y-113930000D01*
G75*
G02*
X127770000Y-114065000I0J-135000D01*
G01*
X127770000Y-114435000D01*
G75*
G02*
X127635000Y-114570000I-135000J0D01*
G01*
X127365000Y-114570000D01*
G75*
G02*
X127230000Y-114435000I0J135000D01*
G01*
G37*
G36*
G01*
X126210000Y-114435000D02*
X126210000Y-114065000D01*
G75*
G02*
X126345000Y-113930000I135000J0D01*
G01*
X126615000Y-113930000D01*
G75*
G02*
X126750000Y-114065000I0J-135000D01*
G01*
X126750000Y-114435000D01*
G75*
G02*
X126615000Y-114570000I-135000J0D01*
G01*
X126345000Y-114570000D01*
G75*
G02*
X126210000Y-114435000I0J135000D01*
G01*
G37*
G36*
G01*
X129612500Y-113993750D02*
X129612500Y-114506250D01*
G75*
G02*
X129393750Y-114725000I-218750J0D01*
G01*
X128956250Y-114725000D01*
G75*
G02*
X128737500Y-114506250I0J218750D01*
G01*
X128737500Y-113993750D01*
G75*
G02*
X128956250Y-113775000I218750J0D01*
G01*
X129393750Y-113775000D01*
G75*
G02*
X129612500Y-113993750I0J-218750D01*
G01*
G37*
G36*
G01*
X131187500Y-113993750D02*
X131187500Y-114506250D01*
G75*
G02*
X130968750Y-114725000I-218750J0D01*
G01*
X130531250Y-114725000D01*
G75*
G02*
X130312500Y-114506250I0J218750D01*
G01*
X130312500Y-113993750D01*
G75*
G02*
X130531250Y-113775000I218750J0D01*
G01*
X130968750Y-113775000D01*
G75*
G02*
X131187500Y-113993750I0J-218750D01*
G01*
G37*
G36*
G01*
X132410000Y-97927500D02*
X132410000Y-98272500D01*
G75*
G02*
X132262500Y-98420000I-147500J0D01*
G01*
X131967500Y-98420000D01*
G75*
G02*
X131820000Y-98272500I0J147500D01*
G01*
X131820000Y-97927500D01*
G75*
G02*
X131967500Y-97780000I147500J0D01*
G01*
X132262500Y-97780000D01*
G75*
G02*
X132410000Y-97927500I0J-147500D01*
G01*
G37*
G36*
G01*
X133380000Y-97927500D02*
X133380000Y-98272500D01*
G75*
G02*
X133232500Y-98420000I-147500J0D01*
G01*
X132937500Y-98420000D01*
G75*
G02*
X132790000Y-98272500I0J147500D01*
G01*
X132790000Y-97927500D01*
G75*
G02*
X132937500Y-97780000I147500J0D01*
G01*
X133232500Y-97780000D01*
G75*
G02*
X133380000Y-97927500I0J-147500D01*
G01*
G37*
G36*
G01*
X131175000Y-101572500D02*
X131175000Y-101227500D01*
G75*
G02*
X131322500Y-101080000I147500J0D01*
G01*
X131617500Y-101080000D01*
G75*
G02*
X131765000Y-101227500I0J-147500D01*
G01*
X131765000Y-101572500D01*
G75*
G02*
X131617500Y-101720000I-147500J0D01*
G01*
X131322500Y-101720000D01*
G75*
G02*
X131175000Y-101572500I0J147500D01*
G01*
G37*
G36*
G01*
X130205000Y-101572500D02*
X130205000Y-101227500D01*
G75*
G02*
X130352500Y-101080000I147500J0D01*
G01*
X130647500Y-101080000D01*
G75*
G02*
X130795000Y-101227500I0J-147500D01*
G01*
X130795000Y-101572500D01*
G75*
G02*
X130647500Y-101720000I-147500J0D01*
G01*
X130352500Y-101720000D01*
G75*
G02*
X130205000Y-101572500I0J147500D01*
G01*
G37*
G36*
G01*
X131175000Y-102572500D02*
X131175000Y-102227500D01*
G75*
G02*
X131322500Y-102080000I147500J0D01*
G01*
X131617500Y-102080000D01*
G75*
G02*
X131765000Y-102227500I0J-147500D01*
G01*
X131765000Y-102572500D01*
G75*
G02*
X131617500Y-102720000I-147500J0D01*
G01*
X131322500Y-102720000D01*
G75*
G02*
X131175000Y-102572500I0J147500D01*
G01*
G37*
G36*
G01*
X130205000Y-102572500D02*
X130205000Y-102227500D01*
G75*
G02*
X130352500Y-102080000I147500J0D01*
G01*
X130647500Y-102080000D01*
G75*
G02*
X130795000Y-102227500I0J-147500D01*
G01*
X130795000Y-102572500D01*
G75*
G02*
X130647500Y-102720000I-147500J0D01*
G01*
X130352500Y-102720000D01*
G75*
G02*
X130205000Y-102572500I0J147500D01*
G01*
G37*
G36*
G01*
X132395000Y-96827500D02*
X132395000Y-97172500D01*
G75*
G02*
X132247500Y-97320000I-147500J0D01*
G01*
X131952500Y-97320000D01*
G75*
G02*
X131805000Y-97172500I0J147500D01*
G01*
X131805000Y-96827500D01*
G75*
G02*
X131952500Y-96680000I147500J0D01*
G01*
X132247500Y-96680000D01*
G75*
G02*
X132395000Y-96827500I0J-147500D01*
G01*
G37*
G36*
G01*
X133365000Y-96827500D02*
X133365000Y-97172500D01*
G75*
G02*
X133217500Y-97320000I-147500J0D01*
G01*
X132922500Y-97320000D01*
G75*
G02*
X132775000Y-97172500I0J147500D01*
G01*
X132775000Y-96827500D01*
G75*
G02*
X132922500Y-96680000I147500J0D01*
G01*
X133217500Y-96680000D01*
G75*
G02*
X133365000Y-96827500I0J-147500D01*
G01*
G37*
D18*
X126000000Y-108100000D03*
D19*
X125500000Y-108100000D03*
D18*
X124500000Y-108100000D03*
D19*
X125000000Y-108100000D03*
D18*
X126000000Y-109100000D03*
D19*
X125000000Y-109100000D03*
X125500000Y-109100000D03*
D18*
X124500000Y-109100000D03*
D20*
X118600000Y-104900000D03*
D21*
X118600000Y-104400000D03*
D20*
X118600000Y-103400000D03*
D21*
X118600000Y-103900000D03*
D20*
X117600000Y-104900000D03*
D21*
X117600000Y-103900000D03*
X117600000Y-104400000D03*
D20*
X117600000Y-103400000D03*
X118600000Y-102200000D03*
D21*
X118600000Y-101700000D03*
D20*
X118600000Y-100700000D03*
D21*
X118600000Y-101200000D03*
D20*
X117600000Y-102200000D03*
D21*
X117600000Y-101200000D03*
X117600000Y-101700000D03*
D20*
X117600000Y-100700000D03*
D18*
X120600000Y-98100000D03*
D19*
X121100000Y-98100000D03*
D18*
X122100000Y-98100000D03*
D19*
X121600000Y-98100000D03*
D18*
X120600000Y-97100000D03*
D19*
X121600000Y-97100000D03*
X121100000Y-97100000D03*
D18*
X122100000Y-97100000D03*
X123300000Y-98100000D03*
D19*
X123800000Y-98100000D03*
D18*
X124800000Y-98100000D03*
D19*
X124300000Y-98100000D03*
D18*
X123300000Y-97100000D03*
D19*
X124300000Y-97100000D03*
X123800000Y-97100000D03*
D18*
X124800000Y-97100000D03*
X123300000Y-108100000D03*
D19*
X122800000Y-108100000D03*
D18*
X121800000Y-108100000D03*
D19*
X122300000Y-108100000D03*
D18*
X123300000Y-109100000D03*
D19*
X122300000Y-109100000D03*
X122800000Y-109100000D03*
D18*
X121800000Y-109100000D03*
X120600000Y-108100000D03*
D19*
X120100000Y-108100000D03*
D18*
X119100000Y-108100000D03*
D19*
X119600000Y-108100000D03*
D18*
X120600000Y-109100000D03*
D19*
X119600000Y-109100000D03*
X120100000Y-109100000D03*
D18*
X119100000Y-109100000D03*
D22*
X109460000Y-79440000D03*
X112000000Y-79440000D03*
X109460000Y-81980000D03*
X112000000Y-81980000D03*
X109460000Y-84520000D03*
X112000000Y-84520000D03*
X109460000Y-87060000D03*
X112000000Y-87060000D03*
X109460000Y-89600000D03*
X112000000Y-89600000D03*
X109460000Y-92140000D03*
X112000000Y-92140000D03*
X109460000Y-94680000D03*
X112000000Y-94680000D03*
X109460000Y-97220000D03*
X112000000Y-97220000D03*
X109460000Y-99760000D03*
X112000000Y-99760000D03*
X109460000Y-102300000D03*
X112000000Y-102300000D03*
X109460000Y-104840000D03*
X112000000Y-104840000D03*
X109460000Y-107380000D03*
X112000000Y-107380000D03*
X109460000Y-109920000D03*
X112000000Y-109920000D03*
X109460000Y-112460000D03*
X112000000Y-112460000D03*
X109460000Y-115000000D03*
X112000000Y-115000000D03*
X109460000Y-117540000D03*
X112000000Y-117540000D03*
X109460000Y-120080000D03*
X112000000Y-120080000D03*
X109460000Y-122620000D03*
X112000000Y-122620000D03*
X109460000Y-125160000D03*
X112000000Y-125160000D03*
X109460000Y-127700000D03*
D23*
X112000000Y-127700000D03*
G36*
G01*
X132250000Y-104045000D02*
X132250000Y-103675000D01*
G75*
G02*
X132385000Y-103540000I135000J0D01*
G01*
X132655000Y-103540000D01*
G75*
G02*
X132790000Y-103675000I0J-135000D01*
G01*
X132790000Y-104045000D01*
G75*
G02*
X132655000Y-104180000I-135000J0D01*
G01*
X132385000Y-104180000D01*
G75*
G02*
X132250000Y-104045000I0J135000D01*
G01*
G37*
G36*
G01*
X131230000Y-104045000D02*
X131230000Y-103675000D01*
G75*
G02*
X131365000Y-103540000I135000J0D01*
G01*
X131635000Y-103540000D01*
G75*
G02*
X131770000Y-103675000I0J-135000D01*
G01*
X131770000Y-104045000D01*
G75*
G02*
X131635000Y-104180000I-135000J0D01*
G01*
X131365000Y-104180000D01*
G75*
G02*
X131230000Y-104045000I0J135000D01*
G01*
G37*
G36*
G01*
X130260000Y-104045000D02*
X130260000Y-103675000D01*
G75*
G02*
X130395000Y-103540000I135000J0D01*
G01*
X130665000Y-103540000D01*
G75*
G02*
X130800000Y-103675000I0J-135000D01*
G01*
X130800000Y-104045000D01*
G75*
G02*
X130665000Y-104180000I-135000J0D01*
G01*
X130395000Y-104180000D01*
G75*
G02*
X130260000Y-104045000I0J135000D01*
G01*
G37*
G36*
G01*
X129240000Y-104045000D02*
X129240000Y-103675000D01*
G75*
G02*
X129375000Y-103540000I135000J0D01*
G01*
X129645000Y-103540000D01*
G75*
G02*
X129780000Y-103675000I0J-135000D01*
G01*
X129780000Y-104045000D01*
G75*
G02*
X129645000Y-104180000I-135000J0D01*
G01*
X129375000Y-104180000D01*
G75*
G02*
X129240000Y-104045000I0J135000D01*
G01*
G37*
G36*
G01*
X131380000Y-109090000D02*
X131720000Y-109090000D01*
G75*
G02*
X131860000Y-109230000I0J-140000D01*
G01*
X131860000Y-109510000D01*
G75*
G02*
X131720000Y-109650000I-140000J0D01*
G01*
X131380000Y-109650000D01*
G75*
G02*
X131240000Y-109510000I0J140000D01*
G01*
X131240000Y-109230000D01*
G75*
G02*
X131380000Y-109090000I140000J0D01*
G01*
G37*
G36*
G01*
X131380000Y-108130000D02*
X131720000Y-108130000D01*
G75*
G02*
X131860000Y-108270000I0J-140000D01*
G01*
X131860000Y-108550000D01*
G75*
G02*
X131720000Y-108690000I-140000J0D01*
G01*
X131380000Y-108690000D01*
G75*
G02*
X131240000Y-108550000I0J140000D01*
G01*
X131240000Y-108270000D01*
G75*
G02*
X131380000Y-108130000I140000J0D01*
G01*
G37*
G36*
G01*
X128330000Y-111840000D02*
X128330000Y-111500000D01*
G75*
G02*
X128470000Y-111360000I140000J0D01*
G01*
X128750000Y-111360000D01*
G75*
G02*
X128890000Y-111500000I0J-140000D01*
G01*
X128890000Y-111840000D01*
G75*
G02*
X128750000Y-111980000I-140000J0D01*
G01*
X128470000Y-111980000D01*
G75*
G02*
X128330000Y-111840000I0J140000D01*
G01*
G37*
G36*
G01*
X127370000Y-111840000D02*
X127370000Y-111500000D01*
G75*
G02*
X127510000Y-111360000I140000J0D01*
G01*
X127790000Y-111360000D01*
G75*
G02*
X127930000Y-111500000I0J-140000D01*
G01*
X127930000Y-111840000D01*
G75*
G02*
X127790000Y-111980000I-140000J0D01*
G01*
X127510000Y-111980000D01*
G75*
G02*
X127370000Y-111840000I0J140000D01*
G01*
G37*
D24*
X127650000Y-108400000D03*
X129850000Y-108400000D03*
X129850000Y-110100000D03*
X127650000Y-110100000D03*
G36*
G01*
X132643750Y-109812500D02*
X133156250Y-109812500D01*
G75*
G02*
X133375000Y-110031250I0J-218750D01*
G01*
X133375000Y-110468750D01*
G75*
G02*
X133156250Y-110687500I-218750J0D01*
G01*
X132643750Y-110687500D01*
G75*
G02*
X132425000Y-110468750I0J218750D01*
G01*
X132425000Y-110031250D01*
G75*
G02*
X132643750Y-109812500I218750J0D01*
G01*
G37*
G36*
G01*
X132643750Y-108237500D02*
X133156250Y-108237500D01*
G75*
G02*
X133375000Y-108456250I0J-218750D01*
G01*
X133375000Y-108893750D01*
G75*
G02*
X133156250Y-109112500I-218750J0D01*
G01*
X132643750Y-109112500D01*
G75*
G02*
X132425000Y-108893750I0J218750D01*
G01*
X132425000Y-108456250D01*
G75*
G02*
X132643750Y-108237500I218750J0D01*
G01*
G37*
G36*
G01*
X132230000Y-111480000D02*
X132230000Y-111820000D01*
G75*
G02*
X132090000Y-111960000I-140000J0D01*
G01*
X131810000Y-111960000D01*
G75*
G02*
X131670000Y-111820000I0J140000D01*
G01*
X131670000Y-111480000D01*
G75*
G02*
X131810000Y-111340000I140000J0D01*
G01*
X132090000Y-111340000D01*
G75*
G02*
X132230000Y-111480000I0J-140000D01*
G01*
G37*
G36*
G01*
X133190000Y-111480000D02*
X133190000Y-111820000D01*
G75*
G02*
X133050000Y-111960000I-140000J0D01*
G01*
X132770000Y-111960000D01*
G75*
G02*
X132630000Y-111820000I0J140000D01*
G01*
X132630000Y-111480000D01*
G75*
G02*
X132770000Y-111340000I140000J0D01*
G01*
X133050000Y-111340000D01*
G75*
G02*
X133190000Y-111480000I0J-140000D01*
G01*
G37*
M02*
